<svg width="80" height="80" viewBox="0 0 80 80" fill="none" xmlns="http://www.w3.org/2000/svg">
<path d="M63.0126 61.4062C63.0126 61.4062 74.2063 59.6687 77.3001 40.0937C78.3188 33.6437 78.0126 24.4062 77.7501 22.0812C77.7429 22.0186 77.721 21.9586 77.6862 21.906C77.6514 21.8535 77.6047 21.8099 77.5499 21.7788C77.495 21.7477 77.4336 21.7301 77.3707 21.7272C77.3077 21.7244 77.245 21.7365 77.1876 21.7625C77.1876 21.7625 72.9251 24.0812 71.3188 23.775C70.2688 23.575 79.1438 20.2437 77.3001 5.59373C77.1813 4.63749 76.7313 4.71249 76.5938 4.87499C75.5188 6.09999 72.2501 9.68749 70.4063 10.1687C70.4063 10.1687 71.6188 6.43748 70.5376 2.70623C70.4751 2.48748 70.2188 2.38124 70.0063 2.46873C61.9813 5.95623 61.3626 0.937485 51.8813 6.20624C49.7501 7.39374 48.0813 10.1937 48.0813 10.1937C48.0813 10.1937 45.9813 6.11873 41.2438 3.36248C37.8688 1.39373 33.1251 2.14999 31.3063 2.54374C31.0376 2.59999 30.9688 2.94998 31.1938 3.11248C32.3751 3.96248 33.6563 7.85624 32.7813 11.2625C29.5001 6.05624 26.5001 2.07498 17.7188 3.09373C14.5626 3.45623 11.0688 5.15623 6.16258 3.65623C5.79383 3.54373 5.56258 3.77498 5.65008 4.14998C6.73758 8.83748 11.8126 10.5875 11.9751 14.5187C11.9938 14.9625 11.4501 15.1937 11.1438 14.875C9.86258 13.5437 7.04383 11.0125 3.58758 10.4375C3.28133 10.3875 2.99383 10.7125 3.15633 10.975C4.40008 12.925 7.45633 16.1187 8.18758 20.8875C8.28133 21.5125 8.38758 22.2 7.53133 21.7625C6.67508 21.325 5.43758 20.4562 4.30633 18.8875C4.15633 18.6812 3.30633 17.8875 2.98758 19.9875C2.42508 23.6625 -0.168674 42.4812 6.23133 51.8125C13.6251 62.6 17.0876 61.975 17.0876 61.975L63.0126 61.4062Z" fill="url(#paint0_linear_541_4284)"/>
<path d="M70.3251 27.5312C70.7814 27.0624 71.2564 26.6249 71.7189 26.3187C73.0564 25.4312 73.6376 26.7874 73.4814 28.0874C72.9189 32.8124 74.7064 37.5437 74.4751 42.2999C74.2564 46.8124 71.9189 51.3874 67.9876 53.2624C67.7626 53.3687 67.4939 53.4687 67.2689 53.3499C67.0251 53.2187 66.9564 52.8937 66.9189 52.6124C66.4876 49.6374 66.8876 46.1499 66.2876 43.2187C65.7189 40.4374 65.3939 38.4124 65.8564 35.4937C66.2876 32.7999 67.2626 30.9687 68.9814 29.0187C69.3876 28.5562 69.8501 28.0249 70.3251 27.5312Z" fill="#CC3333"/>
<path d="M9.53748 27.5312C9.08123 27.0624 8.60623 26.6249 8.14372 26.3187C6.80622 25.4312 6.22498 26.7874 6.38122 28.0874C6.94372 32.8124 5.15622 37.5437 5.38747 42.2999C5.60622 46.8124 7.94373 51.3874 11.875 53.2624C12.1 53.3687 12.3687 53.4687 12.5937 53.3499C12.8375 53.2187 12.9062 52.8937 12.9437 52.6124C13.375 49.6374 12.975 46.1499 13.575 43.2187C14.1437 40.4374 14.4687 38.4124 14.0062 35.4937C13.575 32.7999 12.6 30.9687 10.8812 29.0187C10.475 28.5562 10.0187 28.0249 9.53748 27.5312Z" fill="#CC3333"/>
<path d="M64.3562 29.6625C64.3562 29.6625 72.9062 42.8187 72.925 55.9187C72.9437 65.5 63.3937 76.0625 63.3937 76.0625C63.3937 76.0625 62.3312 63.6312 61.3812 56.55C60.4312 49.4687 64.3562 29.6625 64.3562 29.6625Z" fill="#374C57"/>
<path d="M64.85 40.6813C64.85 40.6813 67.125 47.8125 67.6438 53.2563C68.5375 62.6875 63.3375 76.6813 63.3375 76.6813L60.9688 60.3L63.5875 48.1125L64.85 40.6813Z" fill="url(#paint1_linear_541_4284)"/>
<path d="M16.5438 28.6124C16.5438 28.6124 6.96253 42.8187 6.93753 55.9187C6.91878 65.4999 16.4688 76.0624 16.4688 76.0624C16.4688 76.0624 17.5313 63.6312 18.4813 56.5499C19.4313 49.4687 16.5438 28.6124 16.5438 28.6124Z" fill="#374C57"/>
<path d="M15.0189 40.6813C15.0189 40.6813 12.7439 47.8125 12.2251 53.2563C11.3314 62.6875 16.5314 76.6813 16.5314 76.6813L18.9001 60.3L16.2814 48.1125L15.0189 40.6813Z" fill="url(#paint2_linear_541_4284)"/>
<path d="M53.2937 19.2125C47.3062 19.2125 44.4563 21.4313 39.9875 21.45C35.5187 21.4313 32.6687 19.2125 26.6812 19.2125C15.5063 19.2125 13.3125 46.25 13.3125 47.3313C13.3125 67.5438 26.7188 77.9313 39.9813 77.9313C53.2438 77.9313 66.65 67.5438 66.65 47.3313C66.6625 46.25 64.475 19.2125 53.2937 19.2125Z" fill="#F04E3E"/>
<path d="M61.4064 38.9562C61.7626 43.1624 58.9189 47.1749 54.0251 48.0687C49.1314 48.9624 44.7251 46.2749 43.6876 42.1874C41.9689 35.3874 46.1314 33.6812 51.0689 33.0749C56.2689 32.4374 61.0376 34.5874 61.4064 38.9562Z" fill="#A81919"/>
<path d="M53.6294 47.2349C56.9023 46.3663 58.9153 43.2496 58.1255 40.2737C57.3357 37.2977 54.0423 35.5893 50.7694 36.4579C47.4965 37.3265 45.4835 40.4431 46.2733 43.4191C47.0631 46.3951 50.3565 48.1035 53.6294 47.2349Z" fill="#FFECB3"/>
<path d="M52.2243 44.8414C53.6221 44.7415 54.6695 43.4604 54.5637 41.9799C54.4579 40.4994 53.239 39.3802 51.8411 39.4801C50.4432 39.58 49.3958 40.8612 49.5016 42.3417C49.6075 43.8222 50.8264 44.9413 52.2243 44.8414Z" fill="#212121"/>
<path d="M19.0251 38.9562C18.6688 43.1624 21.5126 47.1749 26.4063 48.0687C31.3001 48.9624 35.7063 46.2749 36.7438 42.1874C38.4626 35.3874 34.3001 33.6812 29.3626 33.0749C24.1626 32.4374 19.4001 34.5874 19.0251 38.9562Z" fill="#A81919"/>
<path d="M34.1592 43.4188C34.949 40.4429 32.936 37.3262 29.6631 36.4576C26.3902 35.5891 23.0968 37.2974 22.307 40.2734C21.5172 43.2494 23.5302 46.366 26.8031 47.2346C30.076 48.1032 33.3694 46.3948 34.1592 43.4188Z" fill="#FFECB3"/>
<path d="M30.9412 42.3399C31.047 40.8595 29.9996 39.5783 28.6017 39.4784C27.2039 39.3785 25.9849 40.4977 25.8791 41.9782C25.7733 43.4586 26.8207 44.7398 28.2185 44.8397C29.6164 44.9396 30.8354 43.8204 30.9412 42.3399Z" fill="#212121"/>
<path d="M57.7437 56.0938C57.5483 56.0949 57.3543 56.1265 57.1687 56.1875C53.875 57.2563 47.4 59.0063 39.9312 59.0063C32.4625 59.0063 25.9875 57.2625 22.6937 56.1875C22.5081 56.1265 22.3141 56.0949 22.1187 56.0938C21.025 56.0938 20.0687 56.5875 20.35 57.7125C20.9687 60.1875 22.725 64.6813 24.4875 67.0125C27.5625 71.0875 29.2625 72.3813 31.7437 72.4438C31.8562 72.4438 31.9625 72.45 32.0687 72.45C35.1875 72.45 35.7625 71.325 39.9375 71.325C44.1125 71.325 44.6875 72.45 47.8062 72.45C47.9125 72.45 48.0187 72.45 48.1312 72.4438C50.6125 72.3875 52.3062 71.0938 55.3875 67.0125C57.15 64.6813 59.025 60.3562 59.525 57.675C59.8 56.5562 58.8437 56.0938 57.7437 56.0938Z" fill="#281010"/>
<path d="M37.9062 63.1875V60.7812H41.8937V63.1875C41.8937 64.2875 41 64.7687 39.9 64.7687C38.8 64.7687 37.9062 64.2875 37.9062 63.1875Z" fill="#FFF8E1"/>
<path d="M32.3937 62.4875C32.5187 61.8125 32.825 60.1188 32.825 60.1188C32.825 60.1188 36.3375 60.7563 36.7437 60.8313C36.7437 60.8313 36.5125 62.1188 36.3125 63.2C36.1187 64.2813 35.15 64.5938 34.0687 64.4C32.9875 64.2 32.1937 63.5688 32.3937 62.4875Z" fill="#FFF8E1"/>
<path d="M47.475 62.4875C47.35 61.8125 47.0437 60.1188 47.0437 60.1188C47.0437 60.1188 43.5312 60.7563 43.125 60.8313C43.125 60.8313 43.3563 62.1188 43.5563 63.2C43.75 64.2813 44.7187 64.5938 45.8 64.4C46.8812 64.2 47.6687 63.5688 47.475 62.4875Z" fill="#FFF8E1"/>
<path d="M41.925 67.1875V69.5937H37.9375V67.1875C37.9375 66.0875 38.8312 65.6062 39.9312 65.6062C41.0312 65.6062 41.925 66.0875 41.925 67.1875Z" fill="#FFF8E1"/>
<path d="M47.8 67.2062V69.6125H43.8125V67.2062C43.8125 66.1062 44.7063 65.625 45.8063 65.625C46.9063 65.625 47.8 66.1062 47.8 67.2062Z" fill="#FFF8E1"/>
<path d="M36.0563 67.1875V69.5937H32.0688V67.1875C32.0688 66.0875 32.9626 65.6062 34.0626 65.6062C35.1626 65.6062 36.0563 66.0875 36.0563 67.1875Z" fill="#FFF8E1"/>
<path d="M52.9252 59.0563C52.5939 60.5375 52.6189 61.5938 53.4939 63.4875C53.7002 63.9375 53.9127 64.475 53.6064 64.8688C53.2627 65.3125 52.6189 65.2813 52.0127 65.075C50.0252 64.3938 48.4439 62.6313 47.9814 60.5813" fill="#FFF8E1"/>
<path d="M26.9439 59.0563C27.2752 60.5375 27.2502 61.5938 26.3752 63.4875C26.1689 63.9375 25.9564 64.475 26.2627 64.8688C26.6064 65.3125 27.2502 65.2813 27.8564 65.075C29.8439 64.3938 31.4252 62.6313 31.8877 60.5813" fill="#FFF8E1"/>
<path d="M22.4626 58.6813C22.4626 58.6813 23.2313 58.8625 23.6751 59.0688C25.8751 60.1125 31.1751 62.0625 39.9313 62.0625C48.6876 62.0625 53.9813 60.1063 56.1876 59.0688C56.6313 58.8625 57.3938 58.85 57.3938 58.85C56.6188 60.95 55.0251 64.2188 53.9001 65.7563C51.2126 69.6063 48.1938 69.6063 45.3251 68.8438C44.1063 68.5063 42.3126 68.0875 39.9376 68.0875C37.4688 68.0875 35.7626 68.5063 34.5501 68.8438C31.4563 69.6 28.6626 69.2375 25.9751 65.7563C24.8438 64.2188 23.2063 60.8625 22.4626 58.6813ZM58.3626 55.5563C58.1688 55.5563 57.9688 55.5875 57.7688 55.6563C54.3626 56.8 47.6626 58.6688 39.9313 58.6688C32.2001 58.6688 25.5063 56.8 22.0938 55.6563C21.8938 55.5875 21.6938 55.5563 21.5001 55.5563C20.3688 55.5563 19.3751 56.0875 19.6688 57.2875C20.3063 59.9313 22.1251 64.7438 23.9501 67.2375C27.1313 71.6 28.8876 72.9813 31.4563 73.0438C31.5688 73.0438 31.6813 73.05 31.7876 73.05C35.0126 73.05 35.6126 71.8438 39.9313 71.8438C44.2501 71.8438 44.8501 73.05 48.0751 73.05C48.1813 73.05 48.2938 73.05 48.4063 73.0438C50.9688 72.9813 52.7313 71.6 55.9126 67.2375C57.7313 64.7438 59.6813 60.1188 60.1938 57.25C60.4876 56.05 59.4938 55.5563 58.3626 55.5563Z" fill="#B31B1B"/>
<path d="M57.7689 55.6563C54.3501 56.775 47.6626 58.6688 39.9314 58.6688C32.2001 58.6688 25.5314 56.7188 22.0939 55.6563C21.1126 55.35 19.7126 55.2 19.6626 56.4625C19.6126 57.7188 23.1001 58.9313 23.3126 59.0125C25.7439 59.9875 31.1751 62.0625 39.9314 62.0625C48.6876 62.0625 53.9689 60.1813 56.2439 59.3125C57.4439 58.8563 60.2626 57.7188 60.1939 56.4375C60.1439 55.3625 58.9189 55.2813 57.7689 55.6563Z" fill="#CC2D2D"/>
<path d="M49.4251 50.4187C48.8376 49.2 46.9626 48.4875 45.3876 49.7937C44.8876 50.2062 44.1689 49.8437 43.6876 49.15C42.6064 47.6 41.8689 43.6 39.9314 43.6C37.9939 43.6 37.2564 47.6 36.1751 49.15C35.6876 49.8437 34.8376 50.0937 34.4751 49.7937C32.9001 48.4937 31.0251 49.2062 30.4376 50.4187C29.7439 51.8625 30.2439 53.125 31.3314 53.8437C32.2501 54.4562 33.3626 54.35 34.1376 53.9687C34.8939 53.5937 35.2376 54.0437 35.9064 54.5437C37.3751 55.6375 38.8439 56.1625 39.9251 56.1625C41.0064 56.1625 42.4751 55.6437 43.9439 54.5437C44.6126 54.0437 44.9564 53.5937 45.7126 53.9687C46.4876 54.35 47.6001 54.4562 48.5189 53.8437C49.6251 53.125 50.1251 51.8625 49.4251 50.4187Z" fill="#FF8A66"/>
<path d="M35.1938 52.7813C34.9376 52.5375 34.6501 52.3188 34.3126 52.2188C33.9751 52.1188 33.5063 52.1875 33.2251 52.5375C32.9251 52.9063 32.9376 53.5125 33.3063 53.8125C33.7813 54.2063 34.3501 54.0438 34.7876 53.8563C35.6313 54.7188 37.1438 55.3313 37.1438 55.3313C37.1438 55.3313 35.5438 53.1125 35.1938 52.7813Z" fill="#CC2D2D"/>
<path d="M44.675 52.7813C44.9313 52.5375 45.2188 52.3188 45.5563 52.2188C45.8938 52.1188 46.3625 52.1875 46.6438 52.5375C46.9438 52.9063 46.9313 53.5125 46.5625 53.8125C46.0875 54.2063 45.5188 54.0438 45.0813 53.8563C44.2375 54.7188 42.8 55.2938 42.8 55.2938C42.8 55.2938 44.325 53.1125 44.675 52.7813Z" fill="#CC2D2D"/>
<path d="M55.1938 49.0188C53.3126 50.8688 53.8001 53.2438 55.5376 53.7125C56.8501 54.0688 58.2813 53.975 59.5938 53.6125C60.7751 53.2875 61.9251 52.8125 62.7876 52.0563C64.5001 50.55 64.4563 47.575 61.6501 46.9625C59.4751 46.4875 56.4688 47.7688 55.1938 49.0188Z" fill="#FF8A66"/>
<path d="M24.6689 49.0188C26.5502 50.8688 26.0627 53.2438 24.3252 53.7125C23.0127 54.0688 21.5814 53.975 20.2689 53.6125C19.0877 53.2875 17.9377 52.8125 17.0752 52.0563C15.3627 50.55 15.4064 47.575 18.2127 46.9625C20.3877 46.4875 23.3939 47.7688 24.6689 49.0188Z" fill="#FF8A66"/>
<path d="M59.9752 26.6563C63.0565 20.9813 63.744 13.3875 62.6252 8.33127C62.3877 7.25627 61.2752 4.28752 59.4627 4.51877C57.5377 4.76877 58.3002 7.30002 57.994 9.56877C56.9752 17.1125 53.2627 19.0875 51.844 20.55C50.944 21.475 50.5627 23.6 53.4252 26.0688C56.2877 28.55 59.3127 27.8688 59.9752 26.6563Z" fill="#F2A600"/>
<path d="M61.0002 18.9751C60.2189 20.7626 57.3814 24.5188 54.3939 22.9938C53.4189 22.4938 52.9189 20.9188 53.5189 20.0063C54.3752 18.6876 55.0314 17.6313 55.5439 16.6813C56.5752 15.1751 57.5314 12.9938 57.9939 9.56257C58.3002 7.29382 57.5377 4.76882 59.4627 4.51257C63.4439 4.52507 62.7127 15.0563 61.0002 18.9751Z" fill="#FFCA28"/>
<path d="M20.2501 26.7C17.1689 21.025 16.1251 13.3875 17.2439 8.33127C17.4814 7.25627 18.5939 4.28752 20.4064 4.51877C22.3314 4.76877 21.5689 7.30002 21.8751 9.56877C22.8939 17.1125 26.6501 19.1625 28.0689 20.625C28.9689 21.55 29.3064 23.6 26.4439 26.075C23.5814 28.55 20.9064 27.9125 20.2501 26.7Z" fill="#F2A600"/>
<path d="M18.869 18.9751C19.6502 20.7626 22.4877 24.5188 25.4752 22.9938C26.4502 22.4938 26.9502 20.9188 26.3502 20.0063C25.494 18.6876 24.8377 17.6313 24.3252 16.6813C23.294 15.1751 22.3377 12.9938 21.8752 9.56257C21.569 7.29382 22.3315 4.76882 20.4065 4.51257C16.4252 4.52507 17.1565 15.0563 18.869 18.9751Z" fill="#FFCA28"/>
<defs>
<linearGradient id="paint0_linear_541_4284" x1="40.0001" y1="18.2294" x2="40.0001" y2="58.5831" gradientUnits="userSpaceOnUse">
<stop offset="0.369" stop-color="#374C57"/>
<stop offset="0.546" stop-color="#263238"/>
</linearGradient>
<linearGradient id="paint1_linear_541_4284" x1="64.355" y1="74.37" x2="64.355" y2="43.9838" gradientUnits="userSpaceOnUse">
<stop offset="0.105" stop-color="#374C57"/>
<stop offset="0.546" stop-color="#263238"/>
</linearGradient>
<linearGradient id="paint2_linear_541_4284" x1="15.512" y1="74.37" x2="15.512" y2="43.9838" gradientUnits="userSpaceOnUse">
<stop offset="0.105" stop-color="#374C57"/>
<stop offset="0.546" stop-color="#263238"/>
</linearGradient>
</defs>
</svg>
