<svg width="80" height="80" viewBox="0 0 80 80" fill="none" xmlns="http://www.w3.org/2000/svg">
<path d="M68.3999 21.6125C61.675 16.225 52.2062 15.1375 40.1187 15.1375C28.1124 15.1375 18.6999 16.1812 11.9749 21.5C1.81245 29.5562 -0.925051 47.6624 5.6562 59.2562C12.0249 70.4749 20.4687 75.2812 40.1187 75.2812C59.7749 75.2812 69.2312 69.7187 74.5874 59.2562C80.6312 47.4562 78.4375 29.6437 68.3999 21.6125ZM35.7999 48.575L38.9812 44.6187C39.5374 43.9312 40.4937 43.8937 41.0937 44.5437L44.8937 48.6499C45.5 49.2999 45.2687 49.8312 44.375 49.8312H36.4062C35.5124 49.825 35.2437 49.2562 35.7999 48.575ZM18.0187 43.6687L24.9437 35.8687C25.3437 35.4187 25.8749 35.4937 26.1249 36.0375L30.3249 45.0124C30.5812 45.5499 30.2999 45.9437 29.7062 45.875L18.3749 44.6C17.7874 44.5312 17.6249 44.1125 18.0187 43.6687ZM60.1375 53.6062L57.1187 63.5312C56.9062 64.2187 56.2625 64.5 55.6875 64.1562L52.5562 62.2999C51.9874 61.9562 51.0562 61.9812 50.5 62.3562L46.4437 65.0687C45.8812 65.4437 44.9937 65.3999 44.4687 64.9687L41.1187 62.25C40.5937 61.825 39.7437 61.8375 39.2312 62.2875L35.9249 65.1749C35.4062 65.6187 34.5249 65.6999 33.9562 65.3499L29.7374 62.75C29.1687 62.4 28.2187 62.3687 27.6249 62.6687L24.2312 64.4124C23.6437 64.7124 22.9624 64.4125 22.7312 63.7375L19.1875 53.5874C18.9562 52.9124 19.2437 52.6062 19.8374 52.9125L24.8687 55.5062C25.4624 55.8062 26.3437 55.6625 26.8374 55.1875L28.8749 53.2187C29.3624 52.7437 30.2312 52.6499 30.7999 53.0062L34.7437 55.5C35.3062 55.8562 36.1937 55.7875 36.7062 55.3437L39.2249 53.1687C39.7312 52.7249 40.6062 52.6875 41.1499 53.0875L44.3499 55.4249C44.8937 55.8312 45.7937 55.8437 46.35 55.4687L49.3437 53.4187C49.8999 53.0375 50.7874 53.0687 51.3187 53.4874L53.7624 55.3999C54.2937 55.8187 55.1875 55.8624 55.7562 55.4874L59.4937 53.0312C60.0625 52.6562 60.35 52.9187 60.1375 53.6062ZM61.9562 44.45L50.6624 45.9937C50.0687 46.0749 49.7812 45.6875 50.025 45.1437L54.0062 36.075C54.2437 35.525 54.775 35.4312 55.1812 35.875L62.2937 43.5125C62.6937 43.9437 62.5437 44.3625 61.9562 44.45Z" fill="#F57C00"/>
<mask id="mask0_541_3932" style="mask-type:luminance" maskUnits="userSpaceOnUse" x="2" y="15" width="76" height="61">
<path d="M68.3999 21.6125C61.675 16.225 52.2062 15.1375 40.1187 15.1375C28.1124 15.1375 18.6999 16.1812 11.9749 21.5C1.81245 29.5562 -0.925051 47.6624 5.6562 59.2562C12.0249 70.4749 20.4687 75.2812 40.1187 75.2812C59.7749 75.2812 69.2312 69.7187 74.5874 59.2562C80.6312 47.4562 78.4375 29.6437 68.3999 21.6125Z" fill="white"/>
</mask>
<g mask="url(#mask0_541_3932)">
<path d="M61.4561 23.8186C57.2936 19.3249 51.8186 17.7249 45.0311 17.2811C45.4873 17.1374 45.9436 16.9936 46.4436 16.8499C47.8123 16.4499 49.2186 16.1499 50.6373 16.0186C51.2373 15.9624 51.8436 16.0061 52.4373 15.9624C52.7248 15.9436 52.9873 15.8436 53.2811 15.8374C53.6061 15.8311 53.9248 15.8686 54.2498 15.8811C54.5186 15.8874 54.7373 16.0061 54.9873 16.0374C55.2373 16.0686 55.4936 15.9999 55.7436 16.0311C56.1436 16.0811 56.7686 16.3061 56.8811 15.7374C56.9936 15.1874 56.4998 14.9124 56.0436 14.7936C55.4748 14.6436 54.8248 14.6061 54.2436 14.5249C51.8373 14.1936 49.0811 14.4686 46.0436 15.3499C44.5998 15.7686 43.3311 16.1811 42.1561 16.6124C41.9873 16.6749 41.8061 16.7624 41.6186 16.8436C41.4623 16.9124 41.2873 16.9936 41.1186 17.0499C40.9248 17.0936 40.7311 17.1374 40.5248 17.1499C40.3811 17.1499 40.2373 17.1436 40.0373 17.1436C40.0248 17.1436 40.0061 17.1499 39.9873 17.1499H39.5186C39.0498 17.1186 38.5873 17.0124 38.0748 16.8811L37.7248 16.7936C37.3373 16.6999 37.0061 16.6124 36.6873 16.4374C35.9811 16.0249 35.3248 15.6561 34.5873 15.3811C33.5873 15.0186 32.4873 14.7249 31.3311 14.5124C30.0061 14.2749 28.6623 14.1561 27.3186 14.1749C26.6873 14.1811 26.0623 14.2811 25.4311 14.3061C25.0061 14.3186 24.3748 14.3124 24.1998 14.8311C24.1186 15.0624 24.2998 15.2124 24.4311 15.3561C25.1311 16.1561 26.4998 15.7499 27.4123 15.7374C28.6373 15.7249 29.8686 15.8436 31.0811 16.0561C32.1623 16.2499 33.1748 16.5124 34.0936 16.8561C34.4248 16.9811 34.7373 17.1311 35.0623 17.2936C28.3623 17.7374 22.9436 19.3124 18.8373 23.7061C10.0373 33.1061 7.37484 49.6249 12.6311 62.1311C17.5186 73.7624 25.4561 78.5186 40.0873 78.5436C54.3748 78.5436 63.3561 73.1624 67.5498 62.0999C72.4936 49.0749 69.9248 32.9749 61.4561 23.8186ZM14.0123 61.4999C8.98109 49.5436 11.5123 33.7624 19.8998 24.7936C23.4561 20.9874 28.1623 19.4624 33.9811 18.9374C32.7123 19.9561 31.5623 21.5249 30.6061 23.9436C26.9311 33.2499 25.8248 49.5936 28.0123 61.9499C29.3686 69.5936 31.3123 74.2874 34.2748 76.6499C24.0061 75.4749 17.9373 70.8499 14.0123 61.4999ZM40.0498 76.9811H39.9998C34.4561 76.9624 31.3998 72.5249 29.4748 61.6811C27.3311 49.5749 28.4061 33.6124 31.9748 24.5499C33.8123 19.9186 36.2436 18.8124 39.5311 18.7186C39.5936 18.7186 39.6498 18.7374 39.7123 18.7374H39.7373C39.9686 18.7374 40.2186 18.7311 40.4686 18.7186H40.6436V18.7311C40.6686 18.7311 40.6873 18.7186 40.7123 18.7186C43.9248 18.8561 46.3186 20.0249 48.1248 24.6561C51.5686 33.4811 52.6061 49.0561 50.5811 61.6874C48.9498 71.9686 45.4936 76.9686 40.0498 76.9811ZM66.1561 61.5249C62.7248 70.5749 56.1186 75.4561 45.6061 76.6624C48.7498 74.2124 50.8811 69.3499 52.0686 61.9374C54.1248 49.0561 53.0561 33.1249 49.5186 24.0624C48.5436 21.5686 47.3686 19.9624 46.0748 18.9311C51.9811 19.4499 56.7686 20.9999 60.3748 24.9061C68.4623 33.6374 70.8873 49.0436 66.1561 61.5249Z" fill="#FF9800"/>
</g>
<path d="M36.6313 16.8062C36.5938 16.1499 36.6688 15.4624 36.6688 14.9312C36.6688 13.2499 35.7875 11.8562 34.625 10.7124C33.65 9.74994 31.9875 9.16244 31.1375 8.17494C30.8938 7.88744 30.6188 6.99369 30.6688 6.64369C30.8813 5.14369 32.1625 3.49994 33.7125 3.23744C34.5313 3.10619 35.2375 3.38119 35.8688 3.85619C39.4063 6.52494 42.3375 8.75619 42.9188 13.4249C43.0313 14.3437 43.2563 15.2999 43.25 16.2499C43.2438 17.7687 42.7875 18.3062 41.275 18.6999C40.2563 18.9687 38.3438 19.0937 37.4 18.5124C36.8563 18.1687 36.675 17.5187 36.6313 16.8062Z" fill="#2E7D32"/>
<path d="M35.8 48.5749L38.9812 44.6187C39.5375 43.9312 40.4937 43.8937 41.0937 44.5437L44.8937 48.6499C45.5 49.2999 45.2687 49.8312 44.375 49.8312H36.4062C35.5125 49.8249 35.2437 49.2562 35.8 48.5749Z" fill="#422B0D"/>
<path d="M18.0187 43.6687L24.9437 35.8687C25.3437 35.4187 25.875 35.4937 26.125 36.0375L30.325 45.0125C30.5812 45.55 30.3 45.9437 29.7062 45.875L18.375 44.6C17.7875 44.5312 17.625 44.1125 18.0187 43.6687Z" fill="#422B0D"/>
<path d="M60.1375 53.6062L57.1188 63.5312C56.9063 64.2187 56.2625 64.4999 55.6875 64.1562L52.5563 62.2999C51.9875 61.9562 51.0563 61.9812 50.5 62.3562L46.4438 65.0687C45.8813 65.4437 44.9938 65.3999 44.4688 64.9687L41.1188 62.2499C40.5938 61.8249 39.7438 61.8374 39.2313 62.2874L35.925 65.1749C35.4063 65.6187 34.525 65.6999 33.9563 65.3499L29.7375 62.7499C29.1688 62.3999 28.2188 62.3687 27.625 62.6687L24.2313 64.4124C23.6438 64.7124 22.9625 64.4124 22.7313 63.7374L19.1875 53.5874C18.9563 52.9124 19.2438 52.6062 19.8375 52.9124L24.8688 55.5062C25.4625 55.8062 26.3438 55.6624 26.8375 55.1874L28.875 53.2187C29.3625 52.7437 30.2313 52.6499 30.8 53.0062L34.7438 55.4999C35.3063 55.8562 36.1938 55.7874 36.7063 55.3437L39.225 53.1687C39.7313 52.7249 40.6063 52.6874 41.15 53.0874L44.35 55.4249C44.8938 55.8312 45.7938 55.8437 46.35 55.4687L49.3438 53.4187C49.9 53.0374 50.7875 53.0687 51.3188 53.4874L53.7625 55.3999C54.2938 55.8187 55.1875 55.8624 55.7563 55.4874L59.4938 53.0312C60.0625 52.6562 60.35 52.9187 60.1375 53.6062Z" fill="#422B0D"/>
<path d="M61.9563 44.45L50.6625 45.9937C50.0688 46.075 49.7813 45.6875 50.025 45.1438L54.0063 36.075C54.2438 35.525 54.775 35.4313 55.1813 35.875L62.2938 43.5125C62.6938 43.9438 62.5438 44.3625 61.9563 44.45Z" fill="#422B0D"/>
</svg>
