<svg width="80" height="80" viewBox="0 0 80 80" fill="none" xmlns="http://www.w3.org/2000/svg">
<path d="M28.6439 65.6L48.9689 68.4125L73.8689 53.1938C73.8689 53.1938 70.7876 45.8 69.2064 42.0188C67.6251 38.2375 65.0689 33.0438 65.0689 33.0438C65.0689 33.0438 66.4626 29.25 67.0939 24.6875C67.8251 19.3813 67.1814 18.0313 67.1814 18.0313L53.9251 11.9875C53.9251 11.9875 51.9626 13.425 50.2001 16.6813C48.4376 19.9375 47.8251 21.2563 47.8251 21.2563C47.8251 21.2563 43.3376 20.9063 41.3126 20.9063C39.2876 20.9063 35.9438 21.3438 35.9438 21.3438C35.9438 21.3438 32.7751 15.5375 31.1063 13.5125C29.4376 11.4875 26.8251 9.52502 26.8251 9.52502C26.8251 9.52502 15.0376 15.3938 14.5063 19.6125C13.9751 23.8313 14.4751 26.8 14.8313 28.6438C15.1813 30.4938 16.2376 33.1313 16.2376 33.1313C16.2376 33.1313 15.1813 34.7125 13.7751 38.325C12.3688 41.9375 10.7813 46.3313 9.6376 48.1813C8.49385 50.0313 5.4126 54.25 5.4126 54.25L28.6439 65.6Z" fill="#FF6011"/>
<path d="M19.7875 4.83127C18.525 5.18127 17.0312 8.05627 15.6812 12.8063C14.9687 15.3125 14.45 19.9063 14.45 19.9063C14.45 19.9063 18.6125 16.6813 22.3125 15.3313C26.0125 13.9813 30.6999 13.0438 30.6999 13.0438C30.6999 13.0438 28.5437 10.5813 26.0062 8.35002C23.8125 6.41877 20.875 4.53127 19.7875 4.83127Z" fill="#575A5B"/>
<path d="M62.7249 5.3C61.8124 5.05625 58.6687 6.6625 56.4499 8.7625C54.2312 10.8625 52.1062 13.75 52.1062 13.75C52.1062 13.75 56.5625 13.925 60.6125 15.9813C64.6625 18.0313 67.4187 19.85 67.4187 19.85C67.4187 19.85 67.3312 15.6375 66.4187 11.9875C65.4812 8.23125 64.2499 5.7125 62.7249 5.3Z" fill="#575A5B"/>
<path d="M21.0813 10.3437C20.6688 10.5812 18.5188 14.7875 18.6751 21.0812C18.7938 25.775 19.7313 29.525 19.9626 29.525C20.0813 29.525 22.3626 26.8187 24.7751 25.125C27.1876 23.4312 30.2876 22.5062 30.3751 22.3C30.5501 21.8875 28.5876 17.7937 25.9501 14.3375C23.3126 10.8812 21.4876 10.1125 21.0813 10.3437Z" fill="#FF9411"/>
<path d="M53.8125 22.7813C53.6812 22.1813 55.3375 17.0938 57.0375 14.3938C58.7375 11.6938 61.1437 9.00004 61.7875 9.11254C62.4312 9.23129 64.9562 15.1563 64.1312 20.55C63.3125 25.9438 62.2562 29.0563 61.9625 29.1125C61.8 29.1438 60.0625 27.0813 57.9125 25.4188C56.125 24.0313 53.8625 23.0188 53.8125 22.7813Z" fill="#FF9411"/>
<path d="M2.95629 54.6312C2.86254 54.1687 5.36254 53.75 7.06254 52.9312C8.76254 52.1125 12.2813 50.525 17.6813 51.1687C23.075 51.8125 25.7875 53.4375 29.65 56.0375C33.5188 58.65 35.225 64.775 35.225 64.775L44.0813 66.65C44.0813 66.65 47.1625 59.7562 49.4188 57.6187C51.3125 55.8187 56.4188 51.7687 62.9688 51.1687C69.3625 50.5812 71.9438 51.9875 74.1125 52.8125C75.6125 53.3812 76.925 53.6937 77.1063 54.1625C77.2813 54.6312 74.525 56.5062 74.525 56.5062C74.525 56.5062 77.1063 56.9187 77.1625 57.2687C77.25 57.7937 75.225 58.9687 73.8188 59.85C72.4125 60.7312 62.5688 65.7687 58.9188 67.65C56.9813 68.65 49.2375 71.5187 48.0688 71.4625C46.8938 71.4062 33.1688 70.7562 32.2313 70.7C31.2938 70.6437 22.0813 67.4125 17.3313 65.5937C12.0625 63.5812 2.61879 58.7937 2.84379 57.9125C2.96254 57.4437 6.18754 57.0937 6.18754 57.0937C6.18754 57.0937 3.06879 55.2187 2.95629 54.6312Z" fill="#DFDFDF"/>
<path d="M40.0812 74.8125C50.6875 75.3313 51.1062 66.425 49.9937 62.6125C48.8812 58.8 48.4125 58.8 48.4125 58.8C48.4125 58.8 46.1562 61.4125 45.0125 64.6688C44.6562 65.6875 35.2187 64.7875 35.2187 64.7875C35.2187 64.7875 34.75 62.9125 33.8687 61.2063C33.2875 60.0813 32.4 58.8875 32.4 58.8875C32.4 58.8875 30.8187 61.0313 30.525 63.9C30.2312 66.775 29.2937 74.2813 40.0812 74.8125Z" fill="#FEE9C9"/>
<path d="M32.8687 69.0313C32.4 69.5688 33.6625 70.925 34.275 71.5375C34.8937 72.1563 36.2125 73.0063 37 73.075C37.9687 73.1625 40.3 71.1375 40.3 71.1375C40.3 71.1375 42.6875 73.35 44.0125 73.3063C45.3312 73.2625 46.9437 71.4 47.5187 70.7813C47.8687 70.4 48.5625 69.6875 48 69.0188C47.5187 68.4438 46.7875 68.9938 46.1937 69.5438C44.9687 70.6938 44.0687 71.5375 43.9062 71.5688C43.6437 71.6125 40.475 68.7063 40.475 68.7063C40.475 68.7063 37.4375 70.9938 36.8687 70.9938C36.525 70.9938 35.4687 70.0375 34.625 69.2313C34.0812 68.7313 33.4875 68.325 32.8687 69.0313Z" fill="#4A4A4C"/>
<path d="M40.4375 62.3875C38.15 62.4062 34.4125 62.5187 34.6313 65.025C34.85 67.5312 36.0813 69.8187 40.6125 69.775C45.1438 69.7312 46.2875 67.3562 46.375 64.9812C46.425 63.575 45.8938 62.3437 40.4375 62.3875Z" fill="#2D2A25"/>
<path d="M28.6876 60.5876C28.4814 61.2063 27.3689 61.3813 26.2689 60.8063C25.1689 60.2313 23.1439 59.0438 21.4314 58.2563C19.9939 57.5938 18.3939 57.2001 18.5251 56.2751C18.6564 55.3501 20.5064 56.0126 22.0439 56.4938C23.5814 56.9751 26.7501 58.3001 27.4126 58.6938C28.0751 59.0876 29.0001 59.6626 28.6876 60.5876Z" fill="white"/>
<path d="M22.6187 61.2875C20.8937 60.7437 17.8562 59.6563 17.6937 60.7625C17.5624 61.6438 20.1999 62.2625 21.9187 63.225C23.4124 64.0625 26.0749 65.5 26.5812 63.8875C27.0187 62.475 24.2874 61.8187 22.6187 61.2875Z" fill="white"/>
<path d="M52.4875 60.7188C52.975 61.8188 54.6125 60.7126 56.2687 59.8813C58.2062 58.9126 60.7562 57.8126 61.5062 57.5938C62.2562 57.3751 62.825 57.0688 62.6937 56.5813C62.5625 56.1001 61.3812 56.0438 60.4937 56.2313C59.2187 56.4938 57.15 56.9376 55.3437 57.8563C54.2125 58.4376 51.8312 59.2188 52.4875 60.7188Z" fill="white"/>
<path d="M54.4688 64.15C54.8563 65.4437 57.9438 63.8437 59.4375 63.225C60.9313 62.6062 63.8813 61.6437 63.6188 60.85C63.3188 59.9562 59.5688 60.8375 58.5125 61.1125C57.0188 61.5062 53.9438 62.3875 54.4688 64.15Z" fill="white"/>
<path d="M53.5437 46.0688C52.9249 47.9188 51.2249 49.9563 49.2749 49.5438C47.3249 49.1313 46.5499 47.125 46.9437 44.2625C47.3124 41.5938 49.4812 40.55 51.4312 40.9625C53.3812 41.375 54.3999 43.5063 53.5437 46.0688Z" fill="#2D2A25"/>
<path d="M33.5 44.5313C33.875 46.4438 33.6687 48.6938 31.725 49.325C29.7812 49.95 27.4625 49.0813 26.7062 46.2938C25.8687 43.2063 27.1125 41.8 29.0562 41.175C31.0062 40.5438 32.975 41.8813 33.5 44.5313Z" fill="#2D2A25"/>
<path d="M30.0125 42.1938C30.55 42.7313 30.2313 43.6875 29.7063 44.175C29.3875 44.4688 28.3875 45.1438 27.725 44.2625C27.2375 43.6125 27.5938 42.9 28.1625 42.325C28.7313 41.7563 29.525 41.7125 30.0125 42.1938Z" fill="#DFDFDF"/>
<path d="M50.025 42.3251C50.6375 42.7688 50.425 43.8626 49.9813 44.4251C49.7125 44.7688 48.775 45.7813 48.0438 44.9626C47.65 44.5188 47.6938 43.5063 48.1625 42.8501C48.6375 42.2001 49.4688 41.9313 50.025 42.3251Z" fill="#DFDFDF"/>
</svg>
