<svg width="80" height="80" viewBox="0 0 80 80" fill="none" xmlns="http://www.w3.org/2000/svg">
<path d="M8.8499 30.2313C8.58115 33.0438 2.5999 37.0063 2.86865 47.0375C3.1374 57.0688 11.0499 74.575 38.9436 75.0188C66.8374 75.4563 77.0436 57.95 77.1311 45.8938C77.2124 34.7188 71.7686 32.5 71.1499 29.6188C70.6249 27.1563 75.3749 15.8938 64.7249 11.8438C52.1561 7.06253 47.4749 19.1438 47.1249 19.4063C46.7749 19.6688 43.3436 19.8438 40.3499 19.8438C37.3561 19.8438 34.0999 19.8438 33.7499 19.4938C33.3999 19.1438 25.7437 7.00003 14.6562 12.1C4.25615 16.8938 9.0249 28.3813 8.8499 30.2313Z" fill="#B7D019"/>
<path d="M64.425 26.475C64.425 29.7812 62.5499 32.575 59.4124 32.4562C56.7062 32.3562 54.5125 29.775 54.5125 26.475C54.5125 23.175 56.7062 20.5437 59.4124 20.4937C62.6062 20.4312 64.425 23.1687 64.425 26.475Z" fill="#2F2F2F"/>
<path d="M26.1811 26.0063C26.3561 30.2313 24.3061 32.3438 21.1686 32.2813C18.5311 32.2313 16.4436 30.2875 16.3874 26.2375C16.3374 22.9 17.6186 20.3125 21.1686 20.1938C23.8061 20.1125 26.0436 22.675 26.1811 26.0063Z" fill="#2F2F2F"/>
<path d="M33.3062 39.6876C32.8 40.8063 31.3937 41.1563 30.45 40.6126C29.5125 40.0688 29.2562 38.5938 29.8687 37.5313C30.4812 36.4688 31.525 36.3063 32.2875 36.6063C33.3062 37.0063 34.0562 38.0313 33.3062 39.6876Z" fill="#2F2F2F"/>
<path d="M50.206 37.8438C50.6873 39.0063 50.106 40.3688 48.9935 40.7C47.881 41.0313 46.6873 40.3188 46.331 39.1125C45.9748 37.9063 46.4185 36.8563 47.4998 36.425C48.206 36.15 49.4935 36.125 50.206 37.8438Z" fill="#2F2F2F"/>
<path d="M17.1499 48.9438L17.3874 50.6438C17.3874 50.6438 23.9561 57.5063 39.7936 57.7438C56.0436 57.9876 63.0812 50.0626 63.0812 50.0626L55.8062 46.5438C55.8062 46.5438 48.8874 49.4751 39.9687 49.3001C31.0499 49.1251 22.2562 46.5438 22.2562 46.5438L17.1499 48.9438Z" fill="#FF6011"/>
<path d="M65.3687 44.95C63.3187 41.9563 60.8499 44.6813 56.9812 46.125C54.8374 46.925 53.4187 47.3875 53.4187 47.3875C53.4187 47.3875 56.5999 48.0063 58.0062 48.7688C59.4124 49.5313 61.8625 51.2 61.8625 51.2C61.8625 51.2 67.0937 47.475 65.3687 44.95Z" fill="#865B51"/>
<path d="M15.5062 44.6001C13.0437 46.2438 17.3937 50.6501 17.3937 50.6501C17.3937 50.6501 18.7374 49.4126 20.5562 48.6501C22.3749 47.8876 25.4187 47.3376 25.4187 47.3376C25.4187 47.3376 21.8999 46.5438 19.8562 45.3626C18.7999 44.7626 16.9124 43.6626 15.5062 44.6001Z" fill="#865B51"/>
</svg>
