<svg width="80" height="80" viewBox="0 0 80 80" fill="none" xmlns="http://www.w3.org/2000/svg">
<path d="M72.5 75.625C72.5 65.1875 56.0625 60 40.0625 60H40C24.0625 60 7.5 64.5625 7.5 75.6875V77.5625H71.5625V77.5H72.5V75.625Z" fill="url(#paint0_linear_541_4193)"/>
<path d="M45.6875 56.3125H34.3125V62.5625C34.3125 65.375 36.625 67.6875 39.5 67.6875H40.5625C43.4375 67.6875 45.75 65.375 45.75 62.5625L45.6875 56.3125Z" fill="#709921"/>
<path d="M57.0625 31.5H22.9375C19.25 31.5 16.25 34.6875 16.25 38.625C16.25 42.5625 19.25 45.75 22.9375 45.75H57.125C60.8125 45.75 63.8125 42.5625 63.8125 38.625C63.75 34.75 60.75 31.5 57.0625 31.5Z" fill="#709921"/>
<path d="M40 6.9375C29.125 6.9375 19.0625 18.5625 19.0625 35.3125C19.0625 51.9375 29.4375 60.1875 40 60.1875C50.5625 60.1875 60.9375 51.9375 60.9375 35.3125C60.9375 18.5625 50.875 6.9375 40 6.9375Z" fill="#82CC2B"/>
<path d="M64 23.0625C63.625 22.75 63.1875 22.375 62.6875 22.125C62.5625 21.4375 62.5 20.8125 62.3125 20.125C63.6875 18.75 65 17.3125 66.1875 15.75C65.5 16.625 64.25 17.125 62.875 17.125C62.4375 17.125 61.9375 17.0625 61.4375 16.9375H61.375C60.3125 13.6875 58.625 10.5 55.9375 8C56.6875 7.75 57.4375 7.5 58.1875 7.1875C58 7.25 53.5625 6.0625 53.4375 6C54.3125 5 54.9375 3.75 55.125 2.4375C54.5625 3.75 53.125 4.4375 51.8125 4.9375C51.75 4.9375 51.6875 5 51.6875 5C48.6875 3.5 44.8125 2.5625 40 2.5C32.0625 2.5625 26.8125 5.125 23.375 8.75C23.25 8.6875 20.3125 7.25 19.125 6.3125C19.5 7.8125 19.8 9.26875 21.5 10.1875C17.875 11.125 16.8125 12.5625 16.1875 13.625C17.5 13.125 18.875 13 20.25 13C18.6875 15.875 17.8125 19 17.375 21.9375C15.75 22.875 14.5625 24.5625 14.1875 26.375C15 25.6875 16 25.125 17 24.8125C16.5625 30.5 17.375 35 17.375 35C17.375 35 19.3812 40.5 19.4437 40.5C19.3187 36 22.25 27.9375 23.5625 24.5625C24.125 23.0625 25.5625 22.125 27.125 22.125C27.375 22.125 27.5625 22.125 27.8125 22.1875C30.5625 22.6875 35 23.3125 39.9375 23.3125H40.0625C44.9375 23.3125 49.375 22.6875 52.1875 22.1875C52.4375 22.125 52.625 22.125 52.875 22.125C54.4375 22.125 55.875 23.0625 56.4375 24.5625C57.75 28 60.7 36 60.575 40.5C60.6375 40.5 62.625 35 62.625 35C62.625 35 63.375 30.9375 63.0625 25.6875C63.8125 25.875 64.75 26.1875 65.8125 26.875C65.75 25.8125 65.5 24.375 64 23.0625Z" fill="url(#paint1_radial_541_4193)"/>
<path d="M49.125 49.8126C48.875 49.5626 48.625 49.1876 48.625 48.8126C48.6875 48.1876 49.25 47.8126 49.8125 47.5626C50.875 47.0626 51.9375 46.5001 53.125 46.3751C53.5625 46.3126 54.0625 46.3126 54.4375 46.5626C54.875 46.8751 55.125 47.4376 55.0625 48.0001C55 48.5626 54.75 49.0626 54.375 49.4376C52.875 51.2501 50.8125 51.4376 49.125 49.8126Z" fill="#709921"/>
<path d="M50.8751 52.5C51.0626 52.6875 51.1251 53 51.0626 53.3125C51.0001 53.6875 50.6876 53.9375 50.3751 54.25C50.1251 54.4375 49.9376 54.625 49.6251 54.75C49.3126 54.875 49.0001 54.75 48.8126 54.5C48.7501 54.3125 48.7501 54.125 48.7501 54C48.6876 53.125 48.9376 51.875 50.0626 52C50.3751 52.0625 50.6876 52.25 50.8751 52.5Z" fill="#709921"/>
<path d="M26.5625 48.625C26.3125 48.6875 26 48.625 25.75 48.375C25.4375 48.125 25.375 47.75 25.25 47.375C25.1875 47.0625 25.125 46.75 25.1875 46.5C25.25 46.25 25.5 45.9375 25.8125 45.9375C25.9375 45.9375 26.125 46 26.25 46.0625C27 46.4375 28.0625 47.25 27.375 48.125C27.125 48.375 26.875 48.5625 26.5625 48.625Z" fill="#709921"/>
<path d="M29.5002 25.2501C30.0002 25.1876 30.6252 25.2501 31.0002 25.5626C31.5002 26.0001 31.5002 26.8751 31.0627 27.4376C30.6877 28.0001 30.0002 28.3125 29.3752 28.5C29.0002 28.625 28.5627 28.75 28.1877 28.625C27.6252 28.5 27.1877 28.0625 26.9377 27.5625C26.0002 25.625 27.8127 25.3751 29.5002 25.2501Z" fill="#709921"/>
<path d="M37.5626 44.5C37.6251 44.5 37.6876 44.5625 37.7501 44.5625H42.1876C42.2501 44.5625 42.3126 44.5625 42.3751 44.5C42.7501 44.3125 43.0001 43.9375 42.8126 43.5C42.6251 43.0625 41.7501 41.8125 40.0001 41.8125C38.2501 41.8125 37.3751 43.0625 37.1876 43.5C37.0001 43.875 37.1876 44.3125 37.5626 44.5Z" fill="#597718"/>
<path d="M46.5625 51.875C46.5625 53.875 43.625 54.25 40 54.25C36.375 54.25 33.4375 53.875 33.4375 51.875C33.4375 49.875 36.375 47 40 47C43.625 47 46.5625 49.875 46.5625 51.875Z" fill="#333333"/>
<path d="M40 54.25C42.1875 54.25 44.1875 54.125 45.375 53.5625C45.25 51.75 42.875 50.3125 40 50.3125C37.125 50.3125 34.75 51.75 34.625 53.5625C35.8125 54.125 37.8125 54.25 40 54.25Z" fill="#F05455"/>
<path d="M29.3125 43.1875C26.25 43.1875 23.8125 40.375 23.8125 36.875C23.8125 33.375 26.3125 30.5625 29.3125 30.5625C32.375 30.5625 34.8125 33.375 34.8125 36.875C34.8125 40.375 32.375 43.1875 29.3125 43.1875Z" fill="#4E6B17"/>
<path d="M29.3125 31.4375C31.9375 31.4375 34.5125 33.9938 34.5125 37.0563C34.5125 40.1188 32.6187 42.8125 29.3937 42.8125C26.1687 42.8125 24.1625 39.9188 24.1625 36.8563C24.1625 33.7938 26.75 31.4375 29.3125 31.4375ZM29.3125 29.75C25.8125 29.75 22.9375 32.9375 22.9375 36.875C22.9375 40.8125 25.75 44 29.3125 44C32.8125 44 35.6875 40.8125 35.6875 36.875C35.6875 32.9375 32.8125 29.75 29.3125 29.75Z" fill="#709921"/>
<path d="M29.4375 40.625C32.1644 40.625 34.375 38.3305 34.375 35.5C34.375 32.6695 32.1644 30.375 29.4375 30.375C26.7106 30.375 24.5 32.6695 24.5 35.5C24.5 38.3305 26.7106 40.625 29.4375 40.625Z" fill="white"/>
<path d="M29.4375 31.0625C31.75 31.0625 33.6875 33.0625 33.6875 35.5C33.6875 37.9375 31.8125 39.9375 29.4375 39.9375C27.0625 39.9375 25.1875 37.9375 25.1875 35.5C25.1875 33.0625 27.125 31.0625 29.4375 31.0625ZM29.4375 29.6875C26.3125 29.6875 23.8125 32.3125 23.8125 35.5C23.8125 38.6875 26.3125 41.3125 29.4375 41.3125C32.5625 41.3125 35.0625 38.6875 35.0625 35.5C35.0625 32.3125 32.5625 29.6875 29.4375 29.6875Z" fill="#709921"/>
<path d="M50.4375 43.1875C47.375 43.1875 44.9375 40.375 44.9375 36.875C44.9375 33.375 47.4375 30.5625 50.4375 30.5625C53.5 30.5625 55.9375 33.375 55.9375 36.875C55.9375 40.375 53.5 43.1875 50.4375 43.1875Z" fill="#4E6B17"/>
<path d="M50.4375 31.4375C53.0625 31.4375 55.6375 33.9938 55.6375 37.0563C55.6375 40.1188 53.7438 42.8125 50.5188 42.8125C47.3 42.8125 45.2875 39.9188 45.2875 36.8563C45.2875 33.7938 47.875 31.4375 50.4375 31.4375ZM50.4375 29.75C46.9375 29.75 44.0625 32.9375 44.0625 36.875C44.0625 40.8125 46.875 44 50.4375 44C53.9375 44 56.8125 40.8125 56.8125 36.875C56.8125 32.9375 53.9375 29.75 50.4375 29.75Z" fill="#709921"/>
<path d="M50.5625 40.625C53.2894 40.625 55.5 38.3305 55.5 35.5C55.5 32.6695 53.2894 30.375 50.5625 30.375C47.8356 30.375 45.625 32.6695 45.625 35.5C45.625 38.3305 47.8356 40.625 50.5625 40.625Z" fill="white"/>
<path d="M50.5625 31.0625C52.875 31.0625 54.8125 33.0625 54.8125 35.5C54.8125 37.9375 52.9375 39.9375 50.5625 39.9375C48.1875 39.9375 46.3125 37.9375 46.3125 35.5C46.3125 33.0625 48.25 31.0625 50.5625 31.0625ZM50.5625 29.6875C47.4375 29.6875 44.9375 32.3125 44.9375 35.5C44.9375 38.6875 47.4375 41.3125 50.5625 41.3125C53.6875 41.3125 56.1875 38.6875 56.1875 35.5C56.1875 32.3125 53.6875 29.6875 50.5625 29.6875Z" fill="#709921"/>
<path d="M25.3876 65.1625C25.0126 64.725 24.5688 64.5937 24.1376 64.5375C23.4813 64.45 22.9188 64.6062 22.6001 65.0812C22.0438 65.9125 21.8501 67.5125 20.2813 67.6875C19.2563 67.8 19.0751 64.2625 19.0626 62.8937C19.0188 58.0437 19.3126 55.85 19.4313 55.4312C19.5563 55.0062 19.6501 54.25 19.9188 53.8125C20.9063 53.7937 21.6188 52.9875 21.7001 52C21.7813 50.9312 19.8688 49.1875 17.7501 50.6937C16.6876 51.45 15.4376 53.6312 15.3126 59.8812C15.3126 59.8812 15.0751 60.825 14.6126 59.6625C14.1501 58.5 13.3688 56.35 14.3563 53.85C15.0001 53.8625 15.6876 53.275 15.7188 52.2687C15.7626 51.0062 14.6188 50.45 13.7938 50.5375C12.9688 50.625 11.3313 51.0125 10.7438 53.35C10.4063 54.6875 10.4501 56.0625 10.4501 56.0625C10.4501 56.0625 8.91256 56.4187 8.75006 56.5562C8.32506 56.925 7.23756 57.6062 7.36881 60.125C7.42506 61.2437 7.81881 62.6375 7.81881 62.6375C7.81881 62.6375 6.95006 63.0875 6.61256 63.5C6.10631 64.1125 5.69381 64.8 5.49381 65.5625C5.14381 66.9312 5.27506 68.325 5.68756 69.6625C5.94381 70.5 6.30006 71.3125 6.70631 72.0937C6.97506 72.6125 7.36881 73.0937 7.53131 73.6687C7.60631 73.9375 7.59381 74.175 7.54381 74.4187C7.49381 74.6812 7.01881 76.8437 6.86256 77.6312H15.6626C15.7251 77.3625 15.8313 77.0375 15.9001 76.7687C16.0438 76.225 17.1938 75.9187 17.6501 75.6687C20.5251 74.1125 23.5438 71.7062 25.2313 68.6125C25.8001 67.575 26.1376 66.0375 25.3876 65.1625ZM11.0438 62.275L10.5563 59.6375L11.2188 59.3937C11.2188 59.3937 11.5501 60.2562 11.7501 61.45C11.9501 62.6437 11.0438 62.275 11.0438 62.275Z" fill="#82CC2B"/>
<path d="M13.7688 73.3687C13.6813 73.3875 14.3188 71.55 12.8375 69.825C11.5625 68.3437 9.71875 68.95 9.71875 68.95C9.71875 68.95 11.2125 69.2125 12.3125 70.4375C13.4125 71.6687 13.7688 73.3687 13.7688 73.3687Z" fill="#709921"/>
<path d="M9.68745 63.1999C10.1437 63.5687 10.5062 64.1312 10.4312 64.7124C10.3437 65.3999 9.6562 65.8874 8.96245 65.9624C8.2687 66.0374 7.5937 65.7999 6.94995 65.5312C7.42495 66.4562 8.3562 66.4624 8.3562 66.4624C8.3562 66.4624 8.8937 68.7312 9.17495 68.8374L9.2312 66.5999C9.2312 66.5999 10.5437 66.8062 11.0812 65.0499C11.4187 63.9374 10.8437 63.0812 10.0375 62.7124C9.2312 62.3437 8.08745 62.6812 8.08745 62.6812C8.08745 62.6812 9.22495 62.8249 9.68745 63.1999Z" fill="#709921"/>
<path d="M10.7938 56.5562C11.2938 56.7374 11.75 57.0374 11.8 57.6249C11.8625 58.3124 11.2938 58.9374 10.6375 59.1624C9.9813 59.3874 9.26255 59.2999 8.5813 59.1749C9.16255 59.8312 9.93755 59.7624 10.0125 59.9187C10.1125 60.1312 10.0563 61.2874 10.4875 61.9437C10.7063 62.2749 11.2688 62.3312 11.2688 62.3312C11.2688 62.3312 10.6313 61.3374 10.75 59.8812C10.75 59.8812 11.275 59.7374 11.65 59.4999C12.225 59.1374 12.4625 58.4562 12.5125 57.8124C12.6 56.6499 11.5063 56.1624 10.7125 56.0812C9.52505 55.9562 8.75005 56.5624 8.75005 56.5624C8.75005 56.5624 10.2313 56.3499 10.7938 56.5562Z" fill="#709921"/>
<path d="M7.5437 74.4374C8.44995 75.0312 9.8437 75.2687 10.8062 75.1687C9.59995 74.8749 7.94995 73.7437 7.13745 72.8062C7.29995 73.0812 7.4562 73.3562 7.53745 73.6624C7.61245 73.9312 7.59995 74.1687 7.54995 74.4124C7.54995 74.4187 7.5437 74.4312 7.5437 74.4374Z" fill="#709921"/>
<path d="M12.8376 76.1562C13.4314 76.6812 14.7876 76.9875 15.8626 76.8937L15.9001 76.7625C15.9939 76.4062 16.5126 76.1562 16.9939 75.95C15.9376 76.3125 13.9439 76.3187 12.8376 76.1562Z" fill="#709921"/>
<path d="M12.4938 53.3687C12.4813 53.3874 12.4813 53.4124 12.4875 53.4312C12.5438 53.8749 12.7938 54.2937 13.1563 54.5562C13.4188 54.7437 13.7313 54.8437 14.05 54.8562C14.1188 54.5249 14.2125 54.1937 14.35 53.8437C13.7438 53.8624 13.1375 53.6999 12.6313 53.3687C12.5938 53.3499 12.525 53.3249 12.4938 53.3687Z" fill="#709921"/>
<path d="M18.0438 52.9375C18.0375 53.525 18.3563 54.075 18.7875 54.475C19.0063 54.6813 19.2688 54.8563 19.5563 54.9625C19.6438 54.575 19.7438 54.1313 19.925 53.8188C19.6438 53.8125 19.3625 53.7438 19.1063 53.6313C18.7125 53.4625 18.375 53.2 18.0438 52.9375Z" fill="#709921"/>
<path d="M22.2751 65.6937C21.9001 66.525 21.5188 67.5437 20.2813 67.6812C20.1438 67.6937 20.0251 67.6437 19.9126 67.5437C19.9876 68.5437 20.1188 69.75 19.9313 70.675C21.2313 69.35 22.2251 67.7937 22.2751 65.6937Z" fill="#709921"/>
<path d="M54.9751 68.6062C56.6626 71.7 59.6813 74.1062 62.5563 75.6625C63.0126 75.9125 64.1688 76.2187 64.3063 76.7625C64.3751 77.0312 64.4813 77.3562 64.5438 77.625H73.3438C73.1813 76.8375 72.7126 74.675 72.6626 74.4125C72.6189 74.175 72.6063 73.9312 72.6751 73.6625C72.8313 73.0875 73.2251 72.6125 73.5001 72.0875C73.9063 71.3062 74.2626 70.5 74.5189 69.6562C74.9314 68.3187 75.0626 66.9187 74.7126 65.5562C74.5126 64.7875 74.1001 64.1 73.5938 63.4937C73.2563 63.0875 72.3876 62.6312 72.3876 62.6312C72.3876 62.6312 72.7813 61.2375 72.8376 60.1187C72.9688 57.6 71.8813 56.9187 71.4564 56.55C71.2938 56.4062 69.7563 56.0562 69.7563 56.0562C69.7563 56.0562 69.8001 54.6812 69.4626 53.3437C68.8751 51.0062 67.2376 50.6187 66.4126 50.5312C65.5876 50.4437 64.4438 51 64.4876 52.2625C64.5251 53.2625 65.2063 53.8562 65.8501 53.8437C66.8376 56.3437 66.0626 58.5 65.5938 59.6562C65.1313 60.8125 64.8939 59.875 64.8939 59.875C64.7689 53.625 63.5188 51.4437 62.4563 50.6875C60.3376 49.1812 58.4251 50.925 58.5063 51.9937C58.5813 52.9812 59.3001 53.7875 60.2876 53.8062C60.5626 54.2437 60.6563 55 60.7751 55.425C60.8938 55.8375 61.1876 58.0375 61.1439 62.8875C61.1314 64.2562 60.9501 67.8 59.9251 67.6812C58.3563 67.5062 58.1688 65.9062 57.6063 65.075C57.2876 64.6 56.7251 64.45 56.0688 64.5312C55.6376 64.5875 55.1938 64.7187 54.8188 65.1562C54.0751 66.0375 54.4063 67.575 54.9751 68.6062ZM68.4626 61.45C68.6626 60.2562 68.9938 59.3937 68.9938 59.3937L69.6563 59.6375L69.1688 62.275C69.1688 62.275 68.2563 62.6375 68.4626 61.45Z" fill="#82CC2B"/>
<path d="M66.4376 73.3687C66.5251 73.3875 65.8876 71.55 67.3689 69.825C68.6439 68.3437 70.4876 68.95 70.4876 68.95C70.4876 68.95 68.9939 69.2125 67.8939 70.4375C66.8001 71.6687 66.4376 73.3687 66.4376 73.3687Z" fill="#709921"/>
<path d="M70.5188 63.1999C70.0626 63.5687 69.7001 64.1312 69.7751 64.7124C69.8626 65.3999 70.5501 65.8874 71.2438 65.9624C71.9313 66.0437 72.6126 65.7999 73.2563 65.5312C72.7813 66.4562 71.8501 66.4624 71.8501 66.4624C71.8501 66.4624 71.3126 68.7312 71.0313 68.8374L70.9751 66.5999C70.9751 66.5999 69.6626 66.8062 69.1251 65.0499C68.7876 63.9374 69.3626 63.0812 70.1688 62.7124C70.9751 62.3437 72.1188 62.6812 72.1188 62.6812C72.1188 62.6812 70.9876 62.8249 70.5188 63.1999Z" fill="#709921"/>
<path d="M69.4127 56.5562C68.9127 56.7374 68.4564 57.0374 68.4064 57.6249C68.3439 58.3124 68.9127 58.9374 69.5689 59.1624C70.2252 59.3874 70.9439 59.2999 71.6252 59.1749C71.0439 59.8312 70.2689 59.7624 70.1939 59.9187C70.0939 60.1312 70.1502 61.2874 69.7189 61.9437C69.5002 62.2749 68.9377 62.3312 68.9377 62.3312C68.9377 62.3312 69.5752 61.3374 69.4564 59.8812C69.4564 59.8812 68.9314 59.7374 68.5564 59.4999C67.9814 59.1374 67.7439 58.4562 67.6939 57.8124C67.6064 56.6499 68.7002 56.1624 69.4939 56.0812C70.6814 55.9562 71.4564 56.5624 71.4564 56.5624C71.4564 56.5624 69.9752 56.3499 69.4127 56.5562Z" fill="#709921"/>
<path d="M72.6687 74.4375C71.7625 75.0313 70.3687 75.2688 69.4062 75.1688C70.6125 74.875 72.2625 73.7438 73.075 72.8063C72.9125 73.0813 72.7562 73.3563 72.675 73.6625C72.6 73.9313 72.6125 74.1688 72.6625 74.4125C72.6625 74.4188 72.6625 74.4313 72.6687 74.4375Z" fill="#709921"/>
<path d="M67.3689 76.1562C66.7751 76.6812 65.4189 76.9875 64.3439 76.8937L64.3064 76.7625C64.2126 76.4062 63.6939 76.1562 63.2126 75.95C64.2689 76.3125 66.2626 76.3187 67.3689 76.1562Z" fill="#709921"/>
<path d="M67.7127 53.3688C67.7252 53.3875 67.7252 53.4125 67.7189 53.4313C67.6627 53.875 67.4127 54.2938 67.0502 54.5563C66.7877 54.7438 66.4752 54.8438 66.1564 54.8563C66.0877 54.525 65.9939 54.1938 65.8564 53.8438C66.4627 53.8625 67.0689 53.7 67.5752 53.3688C67.6189 53.35 67.6877 53.325 67.7127 53.3688Z" fill="#709921"/>
<path d="M62.1688 52.9375C62.1751 53.525 61.8563 54.075 61.4251 54.475C61.2063 54.6813 60.9439 54.8563 60.6564 54.9625C60.5689 54.575 60.4688 54.1313 60.2876 53.8188C60.5688 53.8125 60.8501 53.7438 61.1063 53.6313C61.4938 53.4625 61.8376 53.2 62.1688 52.9375Z" fill="#709921"/>
<path d="M57.9314 65.6937C58.3064 66.525 58.6876 67.5437 59.9251 67.6812C60.0626 67.6937 60.1814 67.6437 60.2939 67.5437C60.2189 68.5437 60.0876 69.75 60.2751 70.675C58.9814 69.35 57.9814 67.7937 57.9314 65.6937Z" fill="#709921"/>
<defs>
<linearGradient id="paint0_linear_541_4193" x1="40" y1="60" x2="40" y2="81.7881" gradientUnits="userSpaceOnUse">
<stop offset="0.004" stop-color="#00BFA5"/>
<stop offset="1" stop-color="#009E89"/>
</linearGradient>
<radialGradient id="paint1_radial_541_4193" cx="0" cy="0" r="1" gradientUnits="userSpaceOnUse" gradientTransform="translate(40.5994 27.8225) scale(25.0406 25.0406)">
<stop offset="0.594" stop-color="#802828"/>
<stop offset="1" stop-color="#BD5151"/>
</radialGradient>
</defs>
</svg>
