<svg width="80" height="80" viewBox="0 0 80 80" fill="none" xmlns="http://www.w3.org/2000/svg">
<path d="M36.5626 8.52502L24.7126 15.2125L17.7939 21.9L12.1501 22.9938C12.1501 22.9938 14.3501 25.4563 20.7501 23.3688C27.0876 21.3 30.6626 12.8 37.5751 13.5563C44.2189 14.2813 42.9626 20.75 42.9626 20.75L52.0501 10.4063L36.5626 8.52502Z" fill="#5A6415"/>
<path d="M34.5437 26.425C34.5437 26.425 32.4375 27.0438 31.2312 30.3188C30.2937 32.8625 30.9062 35.3313 31.175 36.3001C31.4375 37.2688 32.1062 38.5876 32.1499 39.1126C32.1937 39.6376 30.6437 40.6688 30.7187 41.6438C30.7625 42.2188 31.825 43.0688 33.1375 43.2251C35.6875 43.5313 36.2625 42.875 36.2625 42.875L39.6937 31.0626L34.5437 26.425Z" fill="#5A6415"/>
<path d="M35.7939 46.9938C35.7939 46.9938 31.3751 44.4438 26.8439 44.7063C22.3126 44.9688 21.0376 47.0813 20.5064 48.8876C20.1564 50.0876 19.3439 52.1563 18.7001 53.2001C18.1064 54.1688 16.8501 54.9938 16.0626 55.1688C14.9314 55.4188 13.5314 55.8938 13.9814 57.6313C14.3501 59.0563 15.3876 59.9501 16.6626 60.7876C17.9189 61.6063 19.4001 62.5501 19.4001 62.5501L35.6314 51.7938L35.7939 46.9938Z" fill="#5A6415"/>
<path d="M51.3 55.1312L47.6062 60.0125C47.6062 60.0125 49.0562 62.9188 52.6625 63.75C56.2687 64.5875 58.1375 64.8063 58.625 65.9688C59.2812 67.5563 58.5375 69.6625 58.275 70.1062C58.0125 70.5437 56.6375 71.9813 57.6375 72.9688C58.85 74.1562 62.125 73.45 63.2687 73.0563C64.4125 72.6625 65.85 72.3625 66.3562 70.6937C66.7 69.55 67.3937 65.4312 67.2937 62.875C67.1812 59.9062 66.6312 57.925 65.7125 57.0875C64.7875 56.25 58.7375 55.1312 58.7375 55.1312C58.7375 55.1312 59.7812 52.7062 60.9812 49.5437C61.575 47.9812 61.925 46.3125 62.2125 46.2C62.6687 46.025 63.425 47.2562 63.6 47.7375C63.775 48.2187 63.6875 53.0312 64.3437 53.75C64.9 54.3625 66.7375 54.7625 68.4187 53.6375C69.8937 52.65 71.45 50.8188 71.3687 48.9313C71.2562 46.4875 69.0125 44.7063 68.925 43.7375C68.8375 42.7688 69.275 40.325 68.925 38.4375C68.575 36.5437 59.5312 30.9375 59.5312 30.9375L51.3 55.1312Z" fill="#5A6415"/>
<path d="M35.025 63.575L14.1687 69.2063L11.3562 69.8688L11.4437 72.725L16.7687 76.2438L29.0875 72.5938L36.9625 68.375L34.7624 63.2688" fill="#F26A35"/>
<path d="M12.1938 73.5188C12.1938 73.5188 12.3688 70.925 13.5126 71.1438C14.4438 71.325 14.8751 74.4 14.8751 74.4L16.4563 75.7188L18.0376 74.225C18.0376 74.225 18.8313 71.1438 19.7563 71.0563C20.8126 70.9563 21.5188 73.825 21.5188 73.825L16.4626 76.5938L12.1938 73.5188Z" fill="#FFFDFD"/>
<path d="M24.6875 66.9188C24.6875 66.9188 25.7812 69.0938 27.0625 68.9875C28.6 68.8563 28.8687 65.1188 28.8687 65.1188L24.6875 66.9188Z" fill="#FFFDFD"/>
<path d="M21.9563 57.7251C21.7563 58.9313 19.2688 60.4313 18.2313 61.1125C16.9438 61.9626 15.4438 63.0938 14.4751 63.1375C13.5063 63.1813 12.0688 63.2813 10.6938 63.375C9.37505 63.4626 8.43755 63.7438 7.8188 65.0188C7.36255 65.9626 7.26255 68.1563 8.3188 69.2125C9.37505 70.2688 11.7063 71.1938 14.8313 70.7938C17.9563 70.4 18.9251 69.8688 19.9376 69.4313C20.9501 68.9938 25.6563 67.1001 27.8563 66.5251C30.0563 65.9501 34.1938 64.7626 34.8938 65.3813C35.6001 66 32.7813 67.8876 30.5813 68.7251C28.3813 69.5625 21.8501 73.3 19.2626 74.0063C17.4188 74.5063 13.5001 74.2313 12.5438 73.3438C11.8188 72.675 11.5751 72.2125 11.5563 71.6063C11.5313 71 10.8626 70.7813 10.2563 71.4063C9.5063 72.175 10.3251 74.2188 11.8376 75.4563C13.3438 76.675 15.8813 77.3876 19.6376 77.1251C24.7438 76.775 29.4188 73.4751 30.5188 73.4313C31.6188 73.3876 35.2063 73.9625 38.6126 72.6125C42.1126 71.2251 43.8313 68.5938 43.8313 68.5938C43.8313 68.5938 46.8813 67.1251 48.8188 65.8063C50.7563 64.4876 51.9876 63.5751 51.9876 63.5751C51.9876 63.5751 50.2876 62.5751 50.2438 60.1438C50.2188 58.6938 50.7251 56.7125 52.0063 56.9313C53.2813 57.15 51.0813 60.3626 53.4563 61.5063C55.8313 62.6501 59.9251 63.925 62.1251 62.65C64.3251 61.375 66.5938 58.0813 65.8501 56.9813C65.1001 55.8813 63.3313 55.4751 61.6251 55.1313C60.0251 54.8125 57.9876 54.6875 57.9876 54.6875C57.9876 54.6875 60.1438 49.2751 60.4063 46.2438C60.5438 44.6626 60.4813 43.1563 60.2751 41.8875C60.0126 40.2625 59.5938 38.2438 59.6125 36.7375C59.6376 35.1125 59.7876 32.8688 60.6251 33.0438C61.4626 33.2188 61.0813 35.5063 61.2438 37.6625C61.4188 40.0813 62.4751 43.5126 65.2063 43.3376C67.9313 43.1626 69.3876 41.2688 68.9875 37.6625C68.5938 34.0563 68.1751 31.7688 66.6751 29.9188C65.1813 28.0688 63.5313 27.7001 63.5313 27.7001C63.5313 27.7001 63.3125 20.8626 61.2876 16.6376C59.0688 11.9938 54.0938 5.6813 46.4438 3.4813C38.7938 1.2813 33.1251 3.41255 29.1751 5.81255C23.7438 9.11255 21.3688 18.0626 18.0251 19.6938C14.6813 21.3251 11.9751 21.2563 11.9313 22.1813C11.8876 23.1063 12.2376 23.4126 14.3938 23.3688C16.5501 23.3251 18.7626 22.9751 21.6063 20.9501C24.9688 18.5501 29.5688 12.9876 33.0438 11.7126C36.5188 10.4376 40.2563 10.8313 42.0188 12.7251C43.7813 14.6188 44.3063 16.7438 43.8876 18.4438C43.1938 21.2688 41.1376 23.0626 41.1376 23.0626C41.1376 23.0626 34.5813 24.8251 32.6938 27.7251C30.8063 30.6251 31.3501 31.9251 32.7813 33.0938C35.0751 34.9626 38.1501 34.0188 38.1501 34.0188C38.1501 34.0188 36.6313 39.6063 36.2813 41.3188C35.9313 43.0376 34.8063 48.6688 34.4563 49.5438C34.1063 50.425 33.6626 52.3563 32.4751 52.3125C31.2876 52.2688 29.1751 50.0688 25.5688 51.4751C22.3001 52.7501 22.2251 56.1438 21.9563 57.7251Z" fill="#70853C"/>
<path d="M32.5814 64.8063C31.2376 65.1813 31.1501 68.4813 31.1501 68.4813C31.1501 68.4813 31.9689 68.1626 32.8439 67.6688C33.7001 67.1876 34.0876 66.7751 34.0876 66.7751C34.0876 66.7751 33.4126 64.5751 32.5814 64.8063Z" fill="#FFFDFD"/>
<path d="M60.7875 70.8875C59.8625 70.8188 59.4687 71.7063 59.2625 72.6125C59.15 73.0938 59.1062 73.5563 59.1062 73.5563C59.1062 73.5563 59.6312 73.6688 60.25 73.625C60.8687 73.5813 61.4375 73.4938 61.4375 73.4938C61.4375 73.4938 62.0687 70.9813 60.7875 70.8875Z" fill="#70853C"/>
<path d="M62.2626 73.3188C62.2626 73.3188 62.1313 72.25 62.5938 71.375C63.0563 70.4938 64.3313 70.5 64.4001 71.7063C64.4313 72.3125 64.3563 72.7063 64.3563 72.7063C64.3563 72.7063 63.9188 72.925 63.4876 73.05C62.9813 73.1875 62.2626 73.3188 62.2626 73.3188Z" fill="#70853C"/>
<path d="M65.9063 51.8313C64.8313 51.8376 64.7688 54.0501 64.7688 54.0501C64.7688 54.0501 65.15 54.3626 65.8375 54.3813C66.45 54.4001 66.9375 54.2688 66.9375 54.2688C66.9375 54.2688 67.1 51.8251 65.9063 51.8313Z" fill="#71873B"/>
<path d="M67.8688 53.95C67.8688 53.95 66.85 51.5 68.1813 51.1625C69.0938 50.9313 69.4125 52.825 69.4125 52.825C69.4125 52.825 69.125 53.1875 68.75 53.4438C68.35 53.7125 67.8688 53.95 67.8688 53.95Z" fill="#71873B"/>
<path d="M31.0437 42.2813C31.0437 42.2813 31.8937 40.2688 32.75 40.7063C33.65 41.1688 32.5062 43.0938 32.5062 43.0938C32.5062 43.0938 32.025 42.9375 31.625 42.7188C31.35 42.5688 31.0437 42.2813 31.0437 42.2813Z" fill="#70853C"/>
<path d="M34.45 41.25C35.3938 41.2938 35.0688 43.2875 35.0688 43.2875C35.0688 43.2875 34.6625 43.3313 34.2313 43.3188C33.8313 43.3063 33.3625 43.2625 33.3625 43.2625C33.3625 43.2625 33.6125 41.2125 34.45 41.25Z" fill="#70853C"/>
<path d="M13.9064 57.0875C13.9064 57.0875 16.1751 56.4938 16.6314 57.5063C17.0939 58.5188 14.7751 59.2 14.7751 59.2C14.7751 59.2 14.3001 58.6 14.1501 58.1875C13.8314 57.3375 13.9064 57.0875 13.9064 57.0875Z" fill="#70853C"/>
<path d="M15.5374 59.9563C15.5124 59.8876 16.9437 58.5251 17.7562 59.1188C18.5687 59.7126 17.2499 61.1438 17.2499 61.1438C17.2499 61.1438 16.6999 60.8438 16.3499 60.5938C15.9249 60.2938 15.5374 59.9563 15.5374 59.9563Z" fill="#70853C"/>
<path d="M38.6437 59.3813C38.7312 60.4063 38.4375 61.6126 36.8812 61.9938C35.4687 62.3438 34.0375 61.4376 34.0062 59.9126C33.975 58.4438 35.125 57.3876 36.3812 57.3876C37.6375 57.3876 38.5375 58.1251 38.6437 59.3813Z" fill="#2E2C33"/>
<path d="M16.8687 67.2563C16.8124 67.9876 16.1812 68.1876 15.7249 68.1376C15.0812 68.0626 14.6562 67.4313 14.8374 66.8313C15.0062 66.2501 15.5937 65.9813 16.0937 66.1376C16.5874 66.2876 16.9187 66.6313 16.8687 67.2563Z" fill="#2E2C33"/>
<path d="M11.7812 65.8375C12.0437 66.425 11.5437 67.0063 11.1625 67.1563C10.65 67.3625 9.96873 67.1313 9.79998 66.525C9.63748 65.9438 9.99373 65.4063 10.5 65.275C11.0062 65.1438 11.525 65.2625 11.7812 65.8375Z" fill="#2E2C33"/>
<path d="M37.2124 48.325C36.7874 49.7375 37.2624 50.6063 37.4687 51.0625C37.8812 51.9688 38.5312 51.9375 39.0624 51.525C39.5874 51.1125 38.8249 49.65 39.0937 48.975C39.4749 48.0063 40.8249 47.975 40.7062 46.8063C40.6187 45.9313 39.4499 45.7438 38.6249 46.4563C38.0187 46.9625 37.4937 47.3688 37.2124 48.325Z" fill="#97A927"/>
<path d="M40.0189 39.6688C39.4251 41.1376 39.8001 42.3188 39.9751 42.7501C40.2626 43.4563 41.5814 43.6751 41.7126 42.5063C41.8001 41.7188 41.4251 41.2063 41.7814 40.3063C42.1251 39.4251 42.8376 39.6438 43.5001 39.0501C43.8501 38.7313 43.8939 37.5563 42.6001 37.5751C41.9126 37.5876 40.7189 37.9313 40.0189 39.6688Z" fill="#97A927"/>
<path d="M50.95 42.9626C50.6875 44.3063 50.9063 45.1626 51.1688 45.6251C51.4313 46.0876 52.5313 46.4126 52.8375 45.4064C53.0125 44.8314 52.5938 44.3751 52.9063 43.1876C53.0625 42.5813 53.4813 42.2876 53.875 41.8688C54.4938 41.2063 53.6688 40.1438 52.6625 40.5501C51.9625 40.8313 51.275 41.3251 50.95 42.9626Z" fill="#97A927"/>
<path d="M46.9687 51.2376C46.4187 52.2251 46.5187 53.3376 46.6187 53.9876C46.8187 55.3313 48.1562 55.3063 48.3125 54.5376C48.4687 53.7688 48.2875 52.8188 48.5562 52.1813C48.825 51.5438 49.6562 51.3938 50.1812 51.1251C50.9062 50.7501 50.7062 49.2126 49.3437 49.5001C47.9812 49.7876 47.4062 50.4501 46.9687 51.2376Z" fill="#97A927"/>
<path d="M53.4376 32.9563C53.1063 34.075 53.2001 34.8375 53.2813 35.2438C53.4813 36.1875 54.8001 36.2313 54.9313 35.4C55.0626 34.5625 55.0188 34.1 55.1751 33.575C55.4313 32.7063 55.6501 32.5563 56.0313 32.1438C56.7126 31.4188 55.8751 30.275 54.8438 30.8875C54.2501 31.2438 53.6876 32.1063 53.4376 32.9563Z" fill="#97A927"/>
<path d="M42.7626 29.7751C42.1939 30.8751 42.3314 32.0626 42.4189 32.6438C42.5126 33.2188 42.8064 33.7563 43.4439 33.7063C44.0814 33.6626 44.3126 33.1751 44.2439 32.6438C44.2064 32.3688 44.0626 31.4626 44.3564 30.8376C44.6501 30.2126 45.2376 29.8376 45.7001 29.6563C46.8439 29.2188 46.1689 27.5688 44.8564 28.0126C43.9001 28.3438 43.2189 28.8938 42.7626 29.7751Z" fill="#97A927"/>
<path d="M46.9937 21.2126C46.1687 22.1001 46.125 23.1751 46.1812 23.9376C46.2937 25.4563 47.7 25.2126 47.875 24.3563C47.9937 23.7813 48.1187 22.9938 48.2937 22.5938C48.6437 21.8001 49.2375 21.3188 48.775 20.8313C48.3562 20.4001 47.5437 20.6188 46.9937 21.2126Z" fill="#97A927"/>
<path d="M54.8688 23.2438C54.7938 24.5625 55.0125 25.1 55.3438 25.7063C55.8188 26.575 57.0375 26.3563 57.1063 25.3313C57.1563 24.5875 56.8063 24.7625 56.8813 23.3188C56.9313 22.4063 57.425 21.5313 56.7563 21.2063C56.0938 20.8813 54.9938 21.0563 54.8688 23.2438Z" fill="#97A927"/>
<path d="M52.8187 13.0939C53.1937 13.7314 53.675 14.2814 53.85 15.1626C54.0937 16.3751 55.6812 16.0876 55.7 14.9876C55.725 13.5126 55.2625 12.8564 54.7312 12.1939C54.2187 11.5564 53.3875 11.5314 53.0375 11.7751C52.6875 12.0189 52.5 12.5501 52.8187 13.0939Z" fill="#97A927"/>
<path d="M46.7752 13.6313C46.3752 13.9688 46.2314 14.6438 46.6314 15.1438C47.1564 15.7938 47.4502 16.3251 47.4189 16.8688C47.3689 17.7376 48.1502 18.0563 48.6502 17.6938C49.3189 17.2063 49.5502 16.2938 48.9127 14.8626C48.3127 13.5251 47.2314 13.2376 46.7752 13.6313Z" fill="#97A927"/>
<path d="M45.0563 5.9501C44.8625 6.5626 45.5125 6.7876 46.1625 6.9001C46.8125 7.0126 47.5625 7.5001 47.7813 7.98135C48.0875 8.65635 49.05 9.0251 49.2563 7.96885C49.4375 7.0626 48.2813 6.1251 47.5688 5.7126C46.9875 5.36885 45.3938 4.8876 45.0563 5.9501Z" fill="#97A927"/>
<path d="M43.625 8.63134C42.6375 8.07509 40.925 8.12509 40.7187 9.06884C40.5 10.1001 41.4437 10.0688 41.8625 10.1001C42.4125 10.1438 42.9375 10.3001 43.2687 10.6938C43.6 11.0876 43.8437 11.5313 44.525 11.3313C45.2062 11.1376 45.3437 9.59384 43.625 8.63134Z" fill="#97A927"/>
<path d="M40.2376 5.37501C40.5251 5.01251 40.4376 3.94376 38.5001 3.85626C36.8814 3.78126 36.4626 4.55626 36.7189 5.04376C37.0501 5.68126 37.8564 5.23751 38.5251 5.30626C39.3376 5.39376 39.8876 5.81251 40.2376 5.37501Z" fill="#97A927"/>
<path d="M36.1688 7.28755C35.0501 7.1563 33.8063 7.8313 34.0563 8.8063C34.2563 9.57505 35.1751 8.7438 35.9063 8.76255C36.7876 8.78755 37.5626 9.32505 37.8188 8.8063C38.1938 8.0563 37.7063 7.4688 36.1688 7.28755Z" fill="#97A927"/>
<path d="M32.1938 5.96881C32.175 6.71881 31.475 6.50006 30.6125 6.82506C30.0875 7.02506 29.5938 7.96881 29.1 7.55631C28.4375 7.00006 29.0438 6.11256 30.0375 5.60006C30.7563 5.21881 32.2188 5.17506 32.1938 5.96881Z" fill="#97A927"/>
<path d="M29.1625 9.29382C27.6938 10.0126 27.3125 11.8001 28.0438 12.1188C28.9313 12.5063 28.9125 11.1813 29.675 10.6938C30.2813 10.3126 31.6938 10.5126 31.6813 9.65007C31.6688 8.78757 30.05 8.86257 29.1625 9.29382Z" fill="#97A927"/>
<path d="M26.425 14.1251C26.5875 13.5564 25.4562 12.7814 24.1125 13.6876C22.7687 14.5939 22.675 15.9189 23.5375 16.1064C24.1562 16.2376 24.2 15.3001 24.725 14.8939C25.475 14.3251 26.2062 14.9001 26.425 14.1251Z" fill="#97A927"/>
</svg>

