<svg width="80" height="80" viewBox="0 0 80 80" fill="none" xmlns="http://www.w3.org/2000/svg">
<path d="M40 3.90625C20.5625 3.90625 2.5625 16.8438 2.5625 39.9688C2.5625 63.2812 20.5625 76.0938 40 76.0938C59.4375 76.0938 77.4375 63.5938 77.4375 39.9688C77.375 16.5312 59.375 3.90625 40 3.90625Z" fill="url(#paint0_radial_541_4055)"/>
<path d="M21.6 46.8438C29.5253 46.8438 35.95 40.4191 35.95 32.4938C35.95 24.5685 29.5253 18.1438 21.6 18.1438C13.6747 18.1438 7.25 24.5685 7.25 32.4938C7.25 40.4191 13.6747 46.8438 21.6 46.8438Z" fill="#4FC3F7"/>
<path d="M58.3686 46.8438C66.2938 46.8438 72.7186 40.4191 72.7186 32.4938C72.7186 24.5685 66.2938 18.1438 58.3686 18.1438C50.4433 18.1438 44.0186 24.5685 44.0186 32.4938C44.0186 40.4191 50.4433 46.8438 58.3686 46.8438Z" fill="#4FC3F7"/>
<path d="M14.9419 21.6531L16.625 20.1687L32.515 38.19L30.8325 39.6737L14.9419 21.6531Z" fill="#E1F5FE"/>
<path d="M13.5375 22.8937L9.63745 26.5312L25.525 44.5562L29.425 40.9124L13.5375 22.8937Z" fill="#E1F5FE"/>
<path d="M52.7925 21.6488L54.4756 20.165L70.3656 38.1857L68.6825 39.67L52.7925 21.6488Z" fill="#E1F5FE"/>
<path d="M51.3812 22.8938L47.4812 26.5313L63.3687 44.5563L67.275 40.9125L51.3812 22.8938Z" fill="#E1F5FE"/>
<path d="M60.425 54.2688C60.6312 52.6563 60.0625 50.9001 59.1125 49.6251C58.9875 49.4563 58.7187 49.5375 58.7125 49.7438C58.6687 50.8125 58.2875 52.9688 55.9812 53.7688C51.625 55.2813 49.4687 47.9063 43.1625 48.5001C41.7937 48.6313 40.75 49.2376 39.9937 50.1376L39.9812 50.125L39.9687 50.1376C39.2125 49.2376 38.1687 48.6251 36.8 48.5001C30.4875 47.9063 28.3312 55.2813 23.9812 53.7688C21.675 52.9688 21.2937 50.8125 21.25 49.7438C21.2437 49.5375 20.975 49.4563 20.85 49.6251C19.9 50.9001 19.325 52.6563 19.5375 54.2688C19.9437 57.3938 22.9562 58.3188 22.9562 58.3188C22.1187 59.1063 21.3125 59.3126 20.3437 59.2376C20.0312 59.2126 19.8312 59.5876 20.025 59.8313C22.2937 62.7563 26.4625 63.6751 29.5062 61.7688C29.325 62.3563 29.0375 62.9063 28.6687 63.3688C28.5187 63.5626 28.5875 63.85 28.8187 63.9438C32.7062 65.5126 36.7437 64.7938 39.9875 61.6438C43.225 64.7938 47.2687 65.5126 51.1562 63.9438C51.3812 63.85 51.4562 63.5626 51.3062 63.3688C50.9302 62.8921 50.6462 62.3495 50.4687 61.7688C53.5062 63.6751 57.6812 62.7563 59.95 59.8313C60.1437 59.5813 59.9437 59.2126 59.6312 59.2376C58.6562 59.3126 57.8562 59.1063 57.0187 58.3188C57.0062 58.3188 60.025 57.3938 60.425 54.2688Z" fill="url(#paint1_radial_541_4055)"/>
<path d="M17.1623 12.4813C18.5123 13.2688 19.1936 14.8688 19.1936 14.8688C19.1936 14.8688 17.2623 13.4375 14.1061 15.5375C12.4186 16.6563 12.3561 17.525 10.3498 18.25C10.1248 18.3313 10.0561 18.6313 10.2373 18.7938C11.3373 19.7688 12.5748 20.5875 13.9561 21.0938C16.2686 21.9438 18.6248 20.7 21.0123 20.625C24.2123 20.5188 28.3561 21.425 31.1998 23.0375C32.0051 20.7139 31.9697 18.1815 31.0998 15.8813C30.3123 13.825 28.8561 12.0375 27.0123 10.8375C26.9597 10.8023 26.8981 10.7831 26.8348 10.7823C26.7715 10.7814 26.7093 10.7989 26.6558 10.8326C26.6022 10.8663 26.5596 10.9148 26.533 10.9723C26.5065 11.0297 26.4971 11.0936 26.5061 11.1563L27.0061 14.5438C25.5686 12.3625 23.3123 11.05 20.6811 11.1375C19.6061 11.175 18.2123 11.3813 17.1686 11.9063C16.9436 12.025 16.9436 12.35 17.1623 12.4813Z" fill="url(#paint2_radial_541_4055)"/>
<path d="M62.8374 12.4813C61.4874 13.2688 60.8061 14.8688 60.8061 14.8688C60.8061 14.8688 62.7374 13.4375 65.8936 15.5375C67.5811 16.6563 67.6436 17.525 69.6499 18.25C69.8749 18.3313 69.9436 18.6313 69.7624 18.7938C68.6624 19.7688 67.4249 20.5875 66.0436 21.0938C63.7311 21.9438 61.3749 20.7 58.9874 20.625C55.7874 20.5188 51.6436 21.425 48.7999 23.0375C47.9947 20.7139 48.03 18.1815 48.8999 15.8813C49.6874 13.825 51.1436 12.0375 52.9874 10.8375C53.2249 10.6813 53.5311 10.875 53.4936 11.1563L52.9936 14.5438C54.4311 12.3625 56.6874 11.05 59.3186 11.1375C60.3936 11.175 61.7874 11.3813 62.8311 11.9063C63.0561 12.025 63.0561 12.35 62.8374 12.4813Z" fill="url(#paint3_radial_541_4055)"/>
<path d="M21.6 21.4813C27.6688 21.4813 32.6125 26.4188 32.6125 32.4938C32.6125 38.5688 27.675 43.5063 21.6 43.5063C15.525 43.5063 10.5875 38.5688 10.5875 32.4938C10.5875 26.4188 15.525 21.4813 21.6 21.4813ZM21.6 18.1438C13.675 18.1438 7.25 24.5688 7.25 32.4938C7.25 40.4188 13.675 46.8438 21.6 46.8438C29.525 46.8438 35.95 40.4188 35.95 32.4938C35.95 24.5688 29.525 18.1438 21.6 18.1438Z" fill="#212121"/>
<path d="M58.3686 21.4813C64.4373 21.4813 69.3811 26.4188 69.3811 32.4938C69.3811 38.5688 64.4436 43.5063 58.3686 43.5063C52.2936 43.5063 47.3561 38.5688 47.3561 32.4938C47.3561 26.4188 52.2998 21.4813 58.3686 21.4813ZM58.3686 18.1438C50.4436 18.1438 44.0186 24.5688 44.0186 32.4938C44.0186 40.4188 50.4436 46.8438 58.3686 46.8438C66.2936 46.8438 72.7186 40.4188 72.7186 32.4938C72.7186 24.5688 66.2936 18.1438 58.3686 18.1438Z" fill="#212121"/>
<path d="M71.9812 37.15C72.6187 35.3313 75.5312 34.4125 76.9312 34.0688C77.3749 33.9625 77.6937 33.5625 77.6937 33.1063V31.1375C77.6937 30.6063 77.2812 30.175 76.7499 30.15C75.3374 30.0813 72.7562 29.725 72.0624 28.075C71.0812 25.7625 71.1374 39.5688 71.9812 37.15Z" fill="url(#paint4_linear_541_4055)"/>
<path d="M45.2436 26.75C45.2374 26.75 45.0311 27.5688 43.8874 27.5688C42.7686 27.5688 42.2436 26.6438 39.9999 26.6438C37.7561 26.6438 37.2311 27.5688 36.1124 27.5688C34.9686 27.5688 34.7561 26.7563 34.7561 26.75C34.4061 26.5375 34.5999 30.5438 34.5999 30.5438C34.7186 30.9375 35.3874 34.8375 35.7561 34.8875C35.7561 34.8875 37.2874 32.1938 39.9999 32.1625C42.7061 32.1938 44.2436 34.8875 44.2436 34.8875C44.6124 34.8375 45.2811 30.9375 45.3999 30.5438C45.3999 30.5438 45.5874 26.5375 45.2436 26.75Z" fill="#212121"/>
<path d="M8.01865 37.15C7.38115 35.3313 4.46865 34.4125 3.06865 34.0688C2.6249 33.9625 2.30615 33.5625 2.30615 33.1063V31.1375C2.30615 30.6063 2.71865 30.175 3.2499 30.15C4.6624 30.0813 7.24365 29.725 7.9374 28.075C8.91865 25.7625 8.8624 39.5688 8.01865 37.15Z" fill="url(#paint5_linear_541_4055)"/>
<path d="M45.3561 38.4875C43.9061 33.6437 43.1373 30.775 40.0123 30.7625H39.9748C36.8561 30.7687 36.0873 33.6437 34.6311 38.4875C32.8811 44.3125 27.0373 48.4937 29.9561 52.4375C31.0061 53.85 32.4623 53.825 33.3498 54.05C34.2248 54.275 35.9623 58.325 39.9748 58.325H40.0123C44.0248 58.325 45.7623 54.2812 46.6373 54.05C47.5248 53.8187 48.9811 53.85 50.0311 52.4375C52.9498 48.4875 47.1061 44.3125 45.3561 38.4875Z" fill="url(#paint6_linear_541_4055)"/>
<path d="M35.7811 42.8125C36.8749 40.4937 37.1624 36.3812 37.1624 36.3812C37.1624 36.3812 36.1436 37.5125 34.0686 40.5187C33.6499 41.1312 32.8311 42.4437 32.3499 43.25C30.4374 46.4812 27.9186 49.6687 29.9686 52.4312C31.0186 53.8437 32.4749 53.8187 33.3624 54.0437C33.6311 54.1125 33.9811 54.5375 34.4436 55.0937C34.4436 55.0937 33.0749 52.65 33.3624 50.15C33.6499 47.65 34.6874 45.1312 35.7811 42.8125Z" fill="url(#paint7_radial_541_4055)"/>
<path d="M44.2372 42.8125C43.1435 40.4937 42.856 36.3812 42.856 36.3812C42.856 36.3812 43.8747 37.5125 45.9497 40.5187C46.3685 41.1312 47.1872 42.4437 47.6685 43.25C49.581 46.4812 52.0997 49.6687 50.0497 52.4312C48.9997 53.8437 47.5435 53.8187 46.656 54.0437C46.3872 54.1125 46.0372 54.5375 45.5747 55.0937C45.5747 55.0937 46.9435 52.65 46.656 50.15C46.3685 47.65 45.331 45.1312 44.2372 42.8125Z" fill="url(#paint8_radial_541_4055)"/>
<defs>
<radialGradient id="paint0_radial_541_4055" cx="0" cy="0" r="1" gradientUnits="userSpaceOnUse" gradientTransform="translate(40 40) scale(36.7719 36.7719)">
<stop offset="0.5" stop-color="#FDE030"/>
<stop offset="0.919" stop-color="#F7C02B"/>
<stop offset="1" stop-color="#F4A223"/>
</radialGradient>
<radialGradient id="paint1_radial_541_4055" cx="0" cy="0" r="1" gradientUnits="userSpaceOnUse" gradientTransform="translate(39.9825 55.2534) scale(21.1387 9.75976)">
<stop offset="0.032"/>
<stop offset="1" stop-color="#424242"/>
</radialGradient>
<radialGradient id="paint2_radial_541_4055" cx="0" cy="0" r="1" gradientUnits="userSpaceOnUse" gradientTransform="translate(23.502 20.8986) rotate(0.358667) scale(13.7921 9.36625)">
<stop offset="0.032"/>
<stop offset="0.966" stop-color="#424242"/>
</radialGradient>
<radialGradient id="paint3_radial_541_4055" cx="0" cy="0" r="1" gradientUnits="userSpaceOnUse" gradientTransform="translate(56.9369 20.606) rotate(179.641) scale(12.7809 6.63583)">
<stop offset="0.032"/>
<stop offset="1" stop-color="#424242"/>
</radialGradient>
<linearGradient id="paint4_linear_541_4055" x1="71.0393" y1="32.6219" x2="77.3968" y2="32.6219" gradientUnits="userSpaceOnUse">
<stop offset="0.446" stop-color="#212121"/>
<stop offset="0.748" stop-color="#323232"/>
<stop offset="0.966" stop-color="#424242"/>
</linearGradient>
<linearGradient id="paint5_linear_541_4055" x1="8.96053" y1="32.6219" x2="2.60365" y2="32.6219" gradientUnits="userSpaceOnUse">
<stop offset="0.446" stop-color="#212121"/>
<stop offset="0.748" stop-color="#323232"/>
<stop offset="0.966" stop-color="#424242"/>
</linearGradient>
<linearGradient id="paint6_linear_541_4055" x1="39.9998" y1="13.0206" x2="39.9998" y2="35.5556" gradientUnits="userSpaceOnUse">
<stop offset="0.5" stop-color="#FDE030"/>
<stop offset="1" stop-color="#F7C02B"/>
</linearGradient>
<radialGradient id="paint7_radial_541_4055" cx="0" cy="0" r="1" gradientUnits="userSpaceOnUse" gradientTransform="translate(36.4612 51.7818) rotate(15.7959) scale(7.19159 8.5526)">
<stop stop-color="#B36E00"/>
<stop offset="0.713" stop-color="#C77B00" stop-opacity="0.287"/>
<stop offset="1" stop-color="#D18100" stop-opacity="0"/>
</radialGradient>
<radialGradient id="paint8_radial_541_4055" cx="0" cy="0" r="1" gradientUnits="userSpaceOnUse" gradientTransform="translate(43.5562 51.782) rotate(164.204) scale(7.19159 8.5526)">
<stop stop-color="#B36E00"/>
<stop offset="0.713" stop-color="#C77B00" stop-opacity="0.287"/>
<stop offset="1" stop-color="#D18100" stop-opacity="0"/>
</radialGradient>
</defs>
</svg>
