<svg width="80" height="80" viewBox="0 0 80 80" fill="none" xmlns="http://www.w3.org/2000/svg">
<path d="M2.5 46.7626C2.5 46.7626 17.4688 41.1313 40 41.2376C50.9875 41.2876 63.3312 43.1251 77.5 46.7626C77.5 46.7626 62.8812 75.1063 40 75.1063C17.1187 75.1063 4.95 52.3688 2.5 46.7626Z" fill="url(#paint0_linear_541_4114)"/>
<path d="M39.375 41.2375H39.35C17.1313 41.2375 2.5 46.7625 2.5 46.7625C4.95 51.6438 17.0188 69.8938 39.8938 69.8938C62.7687 69.8938 77.5 46.7625 77.5 46.7625C65.1229 43.0995 52.2827 41.2388 39.375 41.2375Z" fill="url(#paint1_linear_541_4114)"/>
<path d="M40.0875 60H40C23.9688 60.0187 7.5 64.4375 7.5 75.6187V77.475H72.5V75.6187C72.5 65.0812 56.1875 60 40.0875 60Z" fill="url(#paint2_radial_541_4114)"/>
<path d="M45.675 56.3H34.325V62.5375C34.325 65.3563 36.6375 67.6438 39.4875 67.6438H40.5187C43.3687 67.6438 45.6812 65.3563 45.6812 62.5375V56.3H45.675Z" fill="#99674F"/>
<path d="M49.3312 77.65L45.625 66.25H34.375L30.4812 77.65H49.3312Z" fill="url(#paint3_linear_541_4114)"/>
<path d="M57.0813 31.5188H22.9188C19.2376 31.5188 16.2251 34.7313 16.2251 38.65C16.2251 42.575 19.2376 45.7813 22.9188 45.7813H57.0751C60.7563 45.7813 63.7688 42.5688 63.7688 38.65C63.7751 34.7313 60.7626 31.5188 57.0813 31.5188Z" fill="#99674F"/>
<path d="M40 6.91882C29.125 6.91882 19.05 18.5501 19.05 35.2876C19.05 51.9376 29.4313 60.1688 40 60.1688C50.5688 60.1688 60.95 51.9376 60.95 35.2876C60.95 18.5501 50.875 6.91882 40 6.91882Z" fill="#BA8D68"/>
<path d="M29.725 39.9438C31.4268 39.9438 32.8063 38.5168 32.8063 36.7563C32.8063 34.9959 31.4268 33.5688 29.725 33.5688C28.0233 33.5688 26.6438 34.9959 26.6438 36.7563C26.6438 38.5168 28.0233 39.9438 29.725 39.9438Z" fill="#49362E"/>
<path d="M50.2751 39.9438C51.9768 39.9438 53.3563 38.5168 53.3563 36.7563C53.3563 34.9959 51.9768 33.5688 50.2751 33.5688C48.5734 33.5688 47.1938 34.9959 47.1938 36.7563C47.1938 38.5168 48.5734 39.9438 50.2751 39.9438Z" fill="#49362E"/>
<path d="M42.4125 42.5375C42.3437 42.5125 42.2812 42.4938 42.2125 42.4875H37.7937C37.725 42.4938 37.6562 42.5125 37.5937 42.5375C37.1937 42.7 36.975 43.1125 37.1625 43.5563C37.35 44 38.2312 45.2375 40.0062 45.2375C41.7812 45.2375 42.6625 43.9938 42.85 43.5563C43.0312 43.1125 42.8125 42.7 42.4125 42.5375Z" fill="#99674F"/>
<path d="M45.2624 47.5876C43.2687 48.7689 36.7437 48.7689 34.7562 47.5876C33.6124 46.9064 32.4437 47.9501 32.9187 48.9876C33.3874 50.0064 36.9499 52.3751 40.0249 52.3751C43.0999 52.3751 46.6187 50.0064 47.0874 48.9876C47.5562 47.9501 46.4062 46.9064 45.2624 47.5876Z" fill="#5D4037"/>
<path d="M40.0126 2.5188H40.0001H39.9876C19.0564 2.6313 16.7126 20.6188 16.9251 30.0688C16.9251 30.1813 16.9314 30.2875 16.9314 30.3938C16.9314 30.4501 16.9314 30.5063 16.9376 30.5625C17.0001 32.6438 17.1876 34.2563 17.3064 35.0938C17.3126 35.1188 17.3126 35.1438 17.3189 35.1688C17.3689 35.5188 17.4001 35.7125 17.4001 35.7125V35.7313C17.4001 35.7313 18.7939 38.1875 19.7376 39.8188C20.2126 40.6376 20.5751 41.2563 20.5939 41.2563C20.5876 41.0251 20.5814 40.7313 20.5751 40.4063C20.5689 39.625 20.5689 38.6625 20.6001 37.5751L20.6189 37.2938C20.6189 37.2875 20.6126 37.2751 20.6064 37.2688C20.8376 30.875 22.1939 20.675 28.7751 19.0313C33.7876 17.775 39.0939 23.0688 39.8814 23.8938C40.6689 23.0688 45.9751 17.775 50.9876 19.0313C59.2689 21.1 59.2814 36.7125 59.1814 41.2438C59.1814 41.3563 62.3689 35.7375 62.3689 35.7375C62.3689 35.7375 62.3876 35.6188 62.4251 35.3938L62.5814 35.1188C62.5814 35.1188 68.4064 2.6688 40.0126 2.5188Z" fill="#543930"/>
<path d="M40.0126 2.5188H40.0001H39.9876C19.0564 2.6313 16.7126 20.6188 16.9251 30.0688C16.9251 30.1813 16.9314 30.2875 16.9314 30.3938C16.9314 30.4501 16.9314 30.5063 16.9376 30.5625C17.0001 32.6438 17.1876 34.2563 17.3064 35.0938C17.3126 35.1188 17.3126 35.1438 17.3189 35.1688C17.3689 35.5188 17.4001 35.7125 17.4001 35.7125V35.7313C17.4001 35.7313 18.7939 38.1875 19.7376 39.8188C20.2126 40.6376 20.5751 41.2563 20.5939 41.2563C20.5876 41.0251 20.5814 40.7313 20.5751 40.4063C20.5689 39.625 20.5689 38.6625 20.6001 37.5751L20.6189 37.2938C20.6189 37.2875 20.6126 37.2751 20.6064 37.2688C20.8376 30.875 22.1939 20.675 28.7751 19.0313C33.7876 17.775 39.0939 23.0688 39.8814 23.8938C40.6689 23.0688 45.9751 17.775 50.9876 19.0313C59.2689 21.1 59.2814 36.7125 59.1814 41.2438C59.1814 41.3563 62.3689 35.7375 62.3689 35.7375C62.3689 35.7375 62.3876 35.6188 62.4251 35.3938L62.5814 35.1188C62.5814 35.1188 68.4064 2.6688 40.0126 2.5188Z" fill="url(#paint4_radial_541_4114)"/>
<mask id="mask0_541_4114" style="mask-type:luminance" maskUnits="userSpaceOnUse" x="32" y="47" width="16" height="6">
<path d="M45.2624 47.5876C43.2687 48.7689 36.7437 48.7689 34.7562 47.5876C33.6124 46.9064 32.4437 47.9501 32.9187 48.9876C33.3874 50.0064 36.9499 52.3751 40.0249 52.3751C43.0999 52.3751 46.6187 50.0064 47.0874 48.9876C47.5562 47.9501 46.4062 46.9064 45.2624 47.5876Z" fill="white"/>
</mask>
<g mask="url(#mask0_541_4114)">
<path d="M34.5813 47.2876L35.2063 50.4063L36.6688 47.9438L34.5813 47.2876Z" fill="white"/>
<path d="M45.4188 47.2876L44.7938 50.4063L43.3313 47.9438L45.4188 47.2876Z" fill="white"/>
</g>
<path d="M48.6126 66.2876C48.6126 64.8751 48.3126 63.3438 47.8063 62.1501C47.7251 61.9501 47.5064 61.8501 47.2814 61.8688C44.9626 62.2313 42.6814 63.2626 41.3501 64.5938C41.2501 64.6938 41.1251 64.7376 41.0063 64.7376H39.0063C38.8626 64.7376 38.7438 64.6751 38.6626 64.5938C37.3126 63.2626 35.0501 62.2563 32.7126 61.8688C32.4876 61.8501 32.2688 61.9501 32.1876 62.1501C31.6813 63.3376 31.3813 64.8751 31.3813 66.2876C31.3813 67.9001 31.6813 69.2751 32.1876 70.4813C32.2688 70.6813 32.4876 70.8063 32.7126 70.7813C35.0501 70.4188 37.3126 69.4063 38.6438 68.0751C38.7439 67.9751 38.8688 67.9313 38.9876 67.9313H41.0063C41.1501 67.9313 41.2689 67.9938 41.3501 68.0751C42.6814 69.4063 44.9439 70.4126 47.2814 70.7813C47.5064 70.8188 47.7063 70.6813 47.8063 70.4813C48.3126 69.2751 48.6126 67.9001 48.6126 66.2876Z" fill="url(#paint5_linear_541_4114)"/>
<path d="M40.5126 68.5563H39.4876C38.8564 68.5563 38.3376 68.0376 38.3376 67.4063V65.1001C38.3376 64.4688 38.8564 63.9501 39.4876 63.9501H40.5126C41.1439 63.9501 41.6626 64.4688 41.6626 65.1001V67.4063C41.6626 68.0376 41.1439 68.5563 40.5126 68.5563Z" fill="#E51E25"/>
<path d="M54.9875 31.7313C54.9875 31.7251 53.5687 29.4188 50.2687 29.4188C46.9687 29.4188 45.5437 31.7251 45.5437 31.7251V31.7313C45.425 31.9001 45.3562 32.1001 45.3562 32.3188C45.3562 32.8751 45.7937 33.3313 46.3375 33.3313C46.45 33.3313 46.725 33.2501 46.75 33.2376C48.725 32.3938 50.275 32.3938 50.275 32.3938C50.275 32.3938 51.8124 32.4001 53.7874 33.2438C53.8124 33.2563 54.0875 33.3376 54.2 33.3376C54.7375 33.3376 55.1812 32.8876 55.1812 32.3251C55.175 32.1001 55.1062 31.9001 54.9875 31.7313Z" fill="#613E31"/>
<path d="M34.4688 31.7251C34.475 31.7188 33.05 29.4126 29.75 29.4126C26.45 29.4126 25.025 31.7188 25.025 31.7188L25.0312 31.7251C24.9125 31.8938 24.8438 32.0938 24.8438 32.3126C24.8438 32.8688 25.2812 33.3251 25.825 33.3251C25.9375 33.3251 26.2125 33.2438 26.2375 33.2313C28.2125 32.3876 29.7625 32.3876 29.7625 32.3876C29.7625 32.3876 31.3 32.3938 33.275 33.2376C33.3 33.2501 33.575 33.3313 33.6875 33.3313C34.2313 33.3313 34.6688 32.8813 34.6688 32.3188C34.6567 32.1065 34.5876 31.9014 34.4688 31.7251Z" fill="#613E31"/>
<defs>
<linearGradient id="paint0_linear_541_4114" x1="40" y1="79.4357" x2="40" y2="42.2257" gradientUnits="userSpaceOnUse">
<stop offset="0.003" stop-color="#4E4E4E"/>
<stop offset="0.152" stop-color="#484848"/>
<stop offset="0.427" stop-color="#373838"/>
<stop offset="0.796" stop-color="#1C1D1D"/>
<stop offset="1" stop-color="#010101"/>
</linearGradient>
<linearGradient id="paint1_linear_541_4114" x1="40" y1="40.9738" x2="40" y2="69.8407" gradientUnits="userSpaceOnUse">
<stop offset="0.003" stop-color="#F70000"/>
<stop offset="0.235" stop-color="#F30000"/>
<stop offset="0.443" stop-color="#E90000"/>
<stop offset="0.642" stop-color="#D60000"/>
<stop offset="0.834" stop-color="#BD0000"/>
<stop offset="1" stop-color="#A00000"/>
</linearGradient>
<radialGradient id="paint2_radial_541_4114" cx="0" cy="0" r="1" gradientUnits="userSpaceOnUse" gradientTransform="translate(40.695 77.3437) scale(37.78 19.2111)">
<stop offset="0.568" stop-color="#212121"/>
<stop offset="1" stop-color="#616161"/>
</radialGradient>
<linearGradient id="paint3_linear_541_4114" x1="39.9056" y1="66.2862" x2="39.9056" y2="76.9925" gradientUnits="userSpaceOnUse">
<stop offset="0.782" stop-color="white"/>
<stop offset="1" stop-color="#E1E1E1"/>
</linearGradient>
<radialGradient id="paint4_radial_541_4114" cx="0" cy="0" r="1" gradientUnits="userSpaceOnUse" gradientTransform="translate(40.202 26.0338) scale(23.9937 23.9938)">
<stop offset="0.794" stop-color="#6D4C41" stop-opacity="0"/>
<stop offset="1" stop-color="#6D4C41"/>
</radialGradient>
<linearGradient id="paint5_linear_541_4114" x1="39.997" y1="63.7501" x2="39.997" y2="70.3188" gradientUnits="userSpaceOnUse">
<stop offset="0.003" stop-color="#E51E25"/>
<stop offset="0.444" stop-color="#E11E25"/>
<stop offset="0.652" stop-color="#D71E25"/>
<stop offset="0.811" stop-color="#C61E24"/>
<stop offset="0.945" stop-color="#B11E23"/>
<stop offset="1" stop-color="#A51E22"/>
</linearGradient>
</defs>
</svg>
